<?xml version="1.0" encoding="UTF-8" standalone="no"?>
<!-- Created with Inkscape (http://www.inkscape.org/) -->

<svg
   xmlns:dc="http://purl.org/dc/elements/1.1/"
   xmlns:cc="http://creativecommons.org/ns#"
   xmlns:rdf="http://www.w3.org/1999/02/22-rdf-syntax-ns#"
   xmlns:svg="http://www.w3.org/2000/svg"
   xmlns="http://www.w3.org/2000/svg"
   xmlns:xlink="http://www.w3.org/1999/xlink"
   xmlns:sodipodi="http://sodipodi.sourceforge.net/DTD/sodipodi-0.dtd"
   xmlns:inkscape="http://www.inkscape.org/namespaces/inkscape"
   width="98.357094mm"
   height="125.23779mm"
   viewBox="0 0 98.357096 125.2378"
   version="1.1"
   id="svg8"
   inkscape:version="0.92.3 (2405546, 2018-03-11)"
   sodipodi:docname="pproject.svg">
  <sodipodi:namedview
     id="base"
     pagecolor="#ffffff"
     bordercolor="#666666"
     borderopacity="1.0"
     inkscape:pageopacity="0.0"
     inkscape:pageshadow="2"
     inkscape:zoom="0.49497475"
     inkscape:cx="473.69942"
     inkscape:cy="120.34664"
     inkscape:document-units="mm"
     inkscape:current-layer="layer1"
     showgrid="false"
     inkscape:window-width="1596"
     inkscape:window-height="857"
     inkscape:window-x="0"
     inkscape:window-y="18"
     inkscape:window-maximized="0" />
  <defs
     id="defs2">
    <linearGradient
       inkscape:collect="always"
       id="linearGradient1052">
      <stop
         style="stop-color:#000000;stop-opacity:1;"
         offset="0"
         id="stop1048" />
      <stop
         style="stop-color:#ffffff;stop-opacity:1"
         offset="1"
         id="stop1050" />
    </linearGradient>
    <radialGradient
       inkscape:collect="always"
       xlink:href="#linearGradient1052"
       id="radialGradient1046"
       cx="779.50372"
       cy="515.99463"
       fx="779.50372"
       fy="515.99463"
       r="188.35938"
       gradientTransform="matrix(-3.3486454,0.00409971,-0.00198888,-1.2748329,3523.8796,1116.1111)"
       gradientUnits="userSpaceOnUse" />
    <radialGradient
       inkscape:collect="always"
       xlink:href="#linearGradient1052"
       id="radialGradient5731"
       gradientUnits="userSpaceOnUse"
       gradientTransform="matrix(-1.4045552,0.00409971,-8.3421544e-4,-1.2748329,1775.3764,1078.9683)"
       cx="779.50372"
       cy="515.99463"
       fx="779.50372"
       fy="515.99463"
       r="188.35938" />
    <radialGradient
       inkscape:collect="always"
       xlink:href="#linearGradient1052"
       id="radialGradient5733"
       gradientUnits="userSpaceOnUse"
       gradientTransform="matrix(-1.4045552,0.00409971,-8.3421544e-4,-1.2748329,1775.3764,1078.9683)"
       cx="779.50372"
       cy="515.99463"
       fx="779.50372"
       fy="515.99463"
       r="188.35938" />
    <path
       style="fill:none;stroke:#00ff00;stroke-width:0.26458332;stroke-opacity:1"
       sodipodi:cx="0"
       sodipodi:cy="-3.3904665"
       sodipodi:end="3.2527232"
       sodipodi:open="true"
       sodipodi:rx="26.132587"
       sodipodi:ry="14.990036"
       sodipodi:start="6.1720547"
       sodipodi:type="arc"
       id="path305-9-6"
       d="M 25.971385,-5.0528915 A 26.132587,14.990036 0 0 1 13.895489,9.304801 a 26.132587,14.990036 0 0 1 -27.790976,5e-7 26.132587,14.990036 0 0 1 -12.075898,-14.3576921" />
    <path
       style="fill:none;stroke:#00ff00;stroke-width:0.26458332;stroke-opacity:1"
       sodipodi:cx="0"
       sodipodi:cy="-3.3904665"
       sodipodi:end="3.2527232"
       sodipodi:open="true"
       sodipodi:rx="26.132587"
       sodipodi:ry="14.990036"
       sodipodi:start="6.1720547"
       sodipodi:type="arc"
       id="path305-9-6-6"
       d="M 25.971385,-5.0528915 A 26.132587,14.990036 0 0 1 13.895489,9.304801 a 26.132587,14.990036 0 0 1 -27.790976,5e-7 26.132587,14.990036 0 0 1 -12.075898,-14.3576921" />
    <path
       style="fill:none;stroke:#00ff00;stroke-width:0.26458332;stroke-opacity:1"
       sodipodi:cx="0"
       sodipodi:cy="-3.3904665"
       sodipodi:end="3.2527232"
       sodipodi:open="true"
       sodipodi:rx="26.132587"
       sodipodi:ry="14.990036"
       sodipodi:start="6.1720547"
       sodipodi:type="arc"
       id="path305-9-6-8"
       d="M 25.971385,-5.0528915 A 26.132587,14.990036 0 0 1 13.895489,9.304801 a 26.132587,14.990036 0 0 1 -27.790976,5e-7 26.132587,14.990036 0 0 1 -12.075898,-14.3576921" />
    <path
       style="fill:none;stroke:#00ff00;stroke-width:0.26458332;stroke-opacity:1"
       sodipodi:cx="0"
       sodipodi:cy="-3.3904665"
       sodipodi:end="3.2527232"
       sodipodi:open="true"
       sodipodi:rx="26.132587"
       sodipodi:ry="14.990036"
       sodipodi:start="6.1720547"
       sodipodi:type="arc"
       id="path305-9-6-0"
       d="M 25.971385,-5.0528915 A 26.132587,14.990036 0 0 1 13.895489,9.304801 a 26.132587,14.990036 0 0 1 -27.790976,5e-7 26.132587,14.990036 0 0 1 -12.075898,-14.3576921" />
    <path
       style="fill:none;stroke:#00ff00;stroke-width:0.26458332;stroke-opacity:1"
       sodipodi:cx="0"
       sodipodi:cy="-3.3904665"
       sodipodi:end="3.2527232"
       sodipodi:open="true"
       sodipodi:rx="26.132587"
       sodipodi:ry="14.990036"
       sodipodi:start="6.1720547"
       sodipodi:type="arc"
       id="path305-9-6-3"
       d="M 25.971385,-5.0528915 A 26.132587,14.990036 0 0 1 13.895489,9.304801 a 26.132587,14.990036 0 0 1 -27.790976,5e-7 26.132587,14.990036 0 0 1 -12.075898,-14.3576921" />
    <path
       style="fill:none;stroke:#00ff00;stroke-width:0.26458332;stroke-opacity:1"
       sodipodi:cx="0"
       sodipodi:cy="-3.3904665"
       sodipodi:end="3.2527232"
       sodipodi:open="true"
       sodipodi:rx="26.132587"
       sodipodi:ry="14.990036"
       sodipodi:start="6.1720547"
       sodipodi:type="arc"
       id="path305-9-6-4"
       d="M 25.971385,-5.0528915 A 26.132587,14.990036 0 0 1 13.895489,9.304801 a 26.132587,14.990036 0 0 1 -27.790976,5e-7 26.132587,14.990036 0 0 1 -12.075898,-14.3576921" />
    <path
       style="fill:none;stroke:#00ff00;stroke-width:0.26458332;stroke-opacity:1"
       sodipodi:cx="0"
       sodipodi:cy="-3.3904665"
       sodipodi:end="3.2527232"
       sodipodi:open="true"
       sodipodi:rx="26.132587"
       sodipodi:ry="14.990036"
       sodipodi:start="6.1720547"
       sodipodi:type="arc"
       id="path305-9-6-2"
       d="M 25.971385,-5.0528915 A 26.132587,14.990036 0 0 1 13.895489,9.304801 a 26.132587,14.990036 0 0 1 -27.790976,5e-7 26.132587,14.990036 0 0 1 -12.075898,-14.3576921" />
    <path
       style="fill:none;stroke:#00ff00;stroke-width:0.26458332;stroke-opacity:1"
       sodipodi:cx="0"
       sodipodi:cy="-3.3904665"
       sodipodi:end="3.2527232"
       sodipodi:open="true"
       sodipodi:rx="26.132587"
       sodipodi:ry="14.990036"
       sodipodi:start="6.1720547"
       sodipodi:type="arc"
       id="path305-9-6-9"
       d="M 25.971385,-5.0528915 A 26.132587,14.990036 0 0 1 13.895489,9.304801 a 26.132587,14.990036 0 0 1 -27.790976,5e-7 26.132587,14.990036 0 0 1 -12.075898,-14.3576921" />
    <path
       style="fill:none;stroke:#00ff00;stroke-width:0.26458332;stroke-opacity:1"
       sodipodi:cx="0"
       sodipodi:cy="-3.3904665"
       sodipodi:end="3.2527232"
       sodipodi:open="true"
       sodipodi:rx="26.132587"
       sodipodi:ry="14.990036"
       sodipodi:start="6.1720547"
       sodipodi:type="arc"
       id="path305-9-6-04"
       d="M 25.971385,-5.0528915 A 26.132587,14.990036 0 0 1 13.895489,9.304801 a 26.132587,14.990036 0 0 1 -27.790976,5e-7 26.132587,14.990036 0 0 1 -12.075898,-14.3576921" />
  </defs>
  <metadata
     id="metadata5">
    <rdf:RDF>
      <cc:Work
         rdf:about="">
        <dc:format>image/svg+xml</dc:format>
        <dc:type
           rdf:resource="http://purl.org/dc/dcmitype/StillImage" />
        <dc:title />
      </cc:Work>
    </rdf:RDF>
  </metadata>
  <g
     inkscape:groupmode="layer"
     id="layer3"
     inkscape:label="Layer 3"
     transform="translate(-193.30421,16.992123)" />
  <g
     id="layer1"
     inkscape:groupmode="layer"
     inkscape:label="Layer 1"
     transform="translate(-193.30421,-70.007878)">
    <flowRoot
       xml:space="preserve"
       id="flowRoot5566"
       style="font-style:normal;font-weight:normal;font-size:40px;line-height:1.25;font-family:sans-serif;letter-spacing:0px;word-spacing:0px;fill:#000000;fill-opacity:1;stroke:none"
       transform="matrix(0.26458333,0,0,0.26458333,0,87)"><flowRegion
         id="flowRegion5568"><rect
           id="rect5570"
           width="22.857143"
           height="48.57143"
           x="300"
           y="150.84366" /></flowRegion><flowPara
         id="flowPara5572" /></flowRoot>    <g
       id="g952"
       transform="matrix(0.94565323,0,0,0.96158626,13.205015,4.8542821)">
      <g
         aria-label="01110     000
01110000     011
1001001101     111
0110101001     100
10101100     011
01110     100"
         transform="matrix(0,0.99506383,-1.0049607,0,0,0)"
         style="font-style:normal;font-weight:normal;font-size:7.40182972px;line-height:1.25;font-family:sans-serif;letter-spacing:0px;word-spacing:0px;fill:#000000;fill-opacity:1;stroke:none;stroke-width:0.18504575"
         id="text2401">
        <path
           d="m 111.00065,-277.30544 c 0,-1.07771 -0.33161,-2.03699 -0.92375,-2.65282 -0.40266,-0.42635 -0.97112,-0.65136 -1.64617,-0.65136 -0.67505,0 -1.24351,0.22501 -1.64617,0.65136 -0.59214,0.61583 -0.92374,1.57511 -0.92374,2.65282 v 1.12507 c 0,1.07771 0.3316,2.03699 0.92374,2.65282 0.40266,0.42635 0.97112,0.65136 1.64617,0.65136 0.67505,0 1.24351,-0.22501 1.64617,-0.65136 0.59214,-0.61583 0.92375,-1.57511 0.92375,-2.65282 z m -3.95554,-0.0829 c 0,-1.23167 0.54477,-2.03699 1.38562,-2.03699 0.84085,0 1.38562,0.80532 1.38562,2.03699 v 1.29087 c 0,1.23167 -0.54477,2.03699 -1.38562,2.03699 -0.84085,0 -1.38562,-0.80532 -1.38562,-2.03699 z"
           style="font-style:normal;font-variant:normal;font-weight:bold;font-stretch:normal;font-size:11.84292793px;font-family:'Nimbus Mono L';-inkscape-font-specification:'Nimbus Mono L Bold';text-align:end;text-anchor:end;fill:#37abc8;fill-opacity:1;stroke-width:0.18504575"
           id="path954" />
        <path
           d="m 116.12401,-280.60962 -2.5107,0.65136 c -0.47372,0.11843 -0.62768,0.26054 -0.62768,0.60399 0,0.34344 0.23686,0.61583 0.54478,0.61583 0.11843,0 0.15395,-0.0118 0.37897,-0.0711 l 1.03034,-0.27238 v 4.84375 h -1.19614 c -0.30792,0 -0.39082,0.0119 -0.4974,0.0829 -0.17765,0.10659 -0.28423,0.30792 -0.28423,0.50925 0,0.17764 0.0947,0.36713 0.2487,0.47372 0.0947,0.0829 0.26054,0.11843 0.53293,0.11843 h 3.57656 c 0.23686,0 0.41451,-0.0355 0.49741,-0.0829 0.17764,-0.11843 0.28423,-0.30792 0.28423,-0.50925 0,-0.18949 -0.0948,-0.36713 -0.2487,-0.48556 -0.11843,-0.0829 -0.21318,-0.10659 -0.53294,-0.10659 h -1.19613 z"
           style="font-style:normal;font-variant:normal;font-weight:bold;font-stretch:normal;font-size:11.84292793px;font-family:'Nimbus Mono L';-inkscape-font-specification:'Nimbus Mono L Bold';text-align:end;text-anchor:end;fill:#37abc8;fill-opacity:1;stroke-width:0.18504575"
           id="path956" />
        <path
           d="m 123.22514,-280.60962 -2.5107,0.65136 c -0.47372,0.11843 -0.62768,0.26054 -0.62768,0.60399 0,0.34344 0.23686,0.61583 0.54478,0.61583 0.11843,0 0.15396,-0.0118 0.37897,-0.0711 l 1.03034,-0.27238 v 4.84375 h -1.19614 c -0.30792,0 -0.39082,0.0119 -0.4974,0.0829 -0.17765,0.10659 -0.28423,0.30792 -0.28423,0.50925 0,0.17764 0.0947,0.36713 0.2487,0.47372 0.0947,0.0829 0.26054,0.11843 0.53293,0.11843 h 3.57656 c 0.23686,0 0.41451,-0.0355 0.49741,-0.0829 0.17764,-0.11843 0.28423,-0.30792 0.28423,-0.50925 0,-0.18949 -0.0948,-0.36713 -0.2487,-0.48556 -0.11843,-0.0829 -0.21318,-0.10659 -0.53294,-0.10659 h -1.19613 z"
           style="font-style:normal;font-variant:normal;font-weight:bold;font-stretch:normal;font-size:11.84292793px;font-family:'Nimbus Mono L';-inkscape-font-specification:'Nimbus Mono L Bold';text-align:end;text-anchor:end;fill:#37abc8;fill-opacity:1;stroke-width:0.18504575"
           id="path958" />
        <path
           d="m 130.32627,-280.60962 -2.5107,0.65136 c -0.47372,0.11843 -0.62768,0.26054 -0.62768,0.60399 0,0.34344 0.23686,0.61583 0.54478,0.61583 0.11843,0 0.15395,-0.0118 0.37897,-0.0711 l 1.03034,-0.27238 v 4.84375 h -1.19614 c -0.30792,0 -0.39082,0.0119 -0.4974,0.0829 -0.17765,0.10659 -0.28423,0.30792 -0.28423,0.50925 0,0.17764 0.0947,0.36713 0.2487,0.47372 0.0947,0.0829 0.26054,0.11843 0.53293,0.11843 h 3.57656 c 0.23686,0 0.41451,-0.0355 0.49741,-0.0829 0.17764,-0.11843 0.28423,-0.30792 0.28423,-0.50925 0,-0.18949 -0.0947,-0.36713 -0.2487,-0.48556 -0.11843,-0.0829 -0.21318,-0.10659 -0.53294,-0.10659 h -1.19613 z"
           style="font-style:normal;font-variant:normal;font-weight:bold;font-stretch:normal;font-size:11.84292793px;font-family:'Nimbus Mono L';-inkscape-font-specification:'Nimbus Mono L Bold';text-align:end;text-anchor:end;fill:#37abc8;fill-opacity:1;stroke-width:0.18504575"
           id="path960" />
        <path
           d="m 139.40517,-277.30544 c 0,-1.07771 -0.3316,-2.03699 -0.92375,-2.65282 -0.40266,-0.42635 -0.97112,-0.65136 -1.64617,-0.65136 -0.67504,0 -1.2435,0.22501 -1.64616,0.65136 -0.59215,0.61583 -0.92375,1.57511 -0.92375,2.65282 v 1.12507 c 0,1.07771 0.3316,2.03699 0.92375,2.65282 0.40266,0.42635 0.97112,0.65136 1.64616,0.65136 0.67505,0 1.24351,-0.22501 1.64617,-0.65136 0.59215,-0.61583 0.92375,-1.57511 0.92375,-2.65282 z m -3.95554,-0.0829 c 0,-1.23167 0.54478,-2.03699 1.38562,-2.03699 0.84085,0 1.38563,0.80532 1.38563,2.03699 v 1.29087 c 0,1.23167 -0.54478,2.03699 -1.38563,2.03699 -0.84084,0 -1.38562,-0.80532 -1.38562,-2.03699 z"
           style="font-style:normal;font-variant:normal;font-weight:bold;font-stretch:normal;font-size:11.84292793px;font-family:'Nimbus Mono L';-inkscape-font-specification:'Nimbus Mono L Bold';text-align:end;text-anchor:end;fill:#37abc8;fill-opacity:1;stroke-width:0.18504575"
           id="path962" />
        <path
           d="m 182.01195,-277.30544 c 0,-1.07771 -0.3316,-2.03699 -0.92375,-2.65282 -0.40265,-0.42635 -0.97112,-0.65136 -1.64616,-0.65136 -0.67505,0 -1.24351,0.22501 -1.64617,0.65136 -0.59215,0.61583 -0.92375,1.57511 -0.92375,2.65282 v 1.12507 c 0,1.07771 0.3316,2.03699 0.92375,2.65282 0.40266,0.42635 0.97112,0.65136 1.64617,0.65136 0.67504,0 1.24351,-0.22501 1.64616,-0.65136 0.59215,-0.61583 0.92375,-1.57511 0.92375,-2.65282 z m -3.95553,-0.0829 c 0,-1.23167 0.54477,-2.03699 1.38562,-2.03699 0.84085,0 1.38562,0.80532 1.38562,2.03699 v 1.29087 c 0,1.23167 -0.54477,2.03699 -1.38562,2.03699 -0.84085,0 -1.38562,-0.80532 -1.38562,-2.03699 z"
           style="font-style:normal;font-variant:normal;font-weight:bold;font-stretch:normal;font-size:11.84292793px;font-family:'Nimbus Mono L';-inkscape-font-specification:'Nimbus Mono L Bold';text-align:end;text-anchor:end;fill:#37abc8;fill-opacity:1;stroke-width:0.18504575"
           id="path964" />
        <path
           d="m 189.11308,-277.30544 c 0,-1.07771 -0.3316,-2.03699 -0.92375,-2.65282 -0.40266,-0.42635 -0.97112,-0.65136 -1.64616,-0.65136 -0.67505,0 -1.24351,0.22501 -1.64617,0.65136 -0.59215,0.61583 -0.92375,1.57511 -0.92375,2.65282 v 1.12507 c 0,1.07771 0.3316,2.03699 0.92375,2.65282 0.40266,0.42635 0.97112,0.65136 1.64617,0.65136 0.67504,0 1.2435,-0.22501 1.64616,-0.65136 0.59215,-0.61583 0.92375,-1.57511 0.92375,-2.65282 z m -3.95554,-0.0829 c 0,-1.23167 0.54478,-2.03699 1.38563,-2.03699 0.84084,0 1.38562,0.80532 1.38562,2.03699 v 1.29087 c 0,1.23167 -0.54478,2.03699 -1.38562,2.03699 -0.84085,0 -1.38563,-0.80532 -1.38563,-2.03699 z"
           style="font-style:normal;font-variant:normal;font-weight:bold;font-stretch:normal;font-size:11.84292793px;font-family:'Nimbus Mono L';-inkscape-font-specification:'Nimbus Mono L Bold';text-align:end;text-anchor:end;fill:#37abc8;fill-opacity:1;stroke-width:0.18504575"
           id="path966" />
        <path
           d="m 196.21421,-277.30544 c 0,-1.07771 -0.3316,-2.03699 -0.92375,-2.65282 -0.40266,-0.42635 -0.97112,-0.65136 -1.64617,-0.65136 -0.67504,0 -1.2435,0.22501 -1.64616,0.65136 -0.59215,0.61583 -0.92375,1.57511 -0.92375,2.65282 v 1.12507 c 0,1.07771 0.3316,2.03699 0.92375,2.65282 0.40266,0.42635 0.97112,0.65136 1.64616,0.65136 0.67505,0 1.24351,-0.22501 1.64617,-0.65136 0.59215,-0.61583 0.92375,-1.57511 0.92375,-2.65282 z m -3.95554,-0.0829 c 0,-1.23167 0.54478,-2.03699 1.38562,-2.03699 0.84085,0 1.38563,0.80532 1.38563,2.03699 v 1.29087 c 0,1.23167 -0.54478,2.03699 -1.38563,2.03699 -0.84084,0 -1.38562,-0.80532 -1.38562,-2.03699 z"
           style="font-style:normal;font-variant:normal;font-weight:bold;font-stretch:normal;font-size:11.84292793px;font-family:'Nimbus Mono L';-inkscape-font-specification:'Nimbus Mono L Bold';text-align:end;text-anchor:end;fill:#37abc8;fill-opacity:1;stroke-width:0.18504575"
           id="path968" />
        <path
           d="m 89.697255,-262.50178 c 0,-1.07771 -0.331602,-2.03699 -0.923749,-2.65282 -0.402659,-0.42635 -0.97112,-0.65136 -1.646167,-0.65136 -0.675047,0 -1.243507,0.22501 -1.646167,0.65136 -0.592146,0.61583 -0.923748,1.57511 -0.923748,2.65282 v 1.12507 c 0,1.07771 0.331602,2.03699 0.923748,2.65282 0.40266,0.42635 0.97112,0.65136 1.646167,0.65136 0.675047,0 1.243508,-0.22501 1.646167,-0.65136 0.592147,-0.61583 0.923749,-1.57511 0.923749,-2.65282 z m -3.955538,-0.0829 c 0,-1.23167 0.544774,-2.03699 1.385622,-2.03699 0.840848,0 1.385623,0.80532 1.385623,2.03699 v 1.29087 c 0,1.23167 -0.544775,2.03699 -1.385623,2.03699 -0.840848,0 -1.385622,-0.80532 -1.385622,-2.03699 z"
           style="font-style:normal;font-variant:normal;font-weight:bold;font-stretch:normal;font-size:11.84292793px;font-family:'Nimbus Mono L';-inkscape-font-specification:'Nimbus Mono L Bold';text-align:end;text-anchor:end;fill:#37abc8;fill-opacity:1;stroke-width:0.18504575"
           id="path970" />
        <path
           d="m 94.820616,-265.80596 -2.510701,0.65136 c -0.473717,0.11843 -0.627675,0.26054 -0.627675,0.60399 0,0.34344 0.236859,0.61583 0.544775,0.61583 0.118429,0 0.153958,-0.0118 0.378974,-0.0711 l 1.030334,-0.27238 v 4.84375 h -1.196135 c -0.307917,0 -0.390817,0.0118 -0.497403,0.0829 -0.177644,0.10659 -0.284231,0.30792 -0.284231,0.50925 0,0.17764 0.09474,0.36713 0.248702,0.47372 0.09474,0.0829 0.260544,0.11843 0.532932,0.11843 h 3.576564 c 0.236858,0 0.414502,-0.0355 0.497403,-0.0829 0.177644,-0.11843 0.28423,-0.30792 0.28423,-0.50925 0,-0.18949 -0.09474,-0.36713 -0.248701,-0.48556 -0.11843,-0.0829 -0.213173,-0.10659 -0.532932,-0.10659 h -1.196136 z"
           style="font-style:normal;font-variant:normal;font-weight:bold;font-stretch:normal;font-size:11.84292793px;font-family:'Nimbus Mono L';-inkscape-font-specification:'Nimbus Mono L Bold';text-align:end;text-anchor:end;fill:#37abc8;fill-opacity:1;stroke-width:0.18504575"
           id="path972" />
        <path
           d="m 101.92175,-265.80596 -2.510704,0.65136 c -0.473717,0.11843 -0.627675,0.26054 -0.627675,0.60399 0,0.34344 0.236858,0.61583 0.544774,0.61583 0.11843,0 0.153958,-0.0118 0.378974,-0.0711 l 1.030331,-0.27238 v 4.84375 h -1.196132 c -0.307916,0 -0.390817,0.0118 -0.497403,0.0829 -0.177644,0.10659 -0.28423,0.30792 -0.28423,0.50925 0,0.17764 0.09474,0.36713 0.248701,0.47372 0.09474,0.0829 0.260545,0.11843 0.532932,0.11843 h 3.576562 c 0.23686,0 0.4145,-0.0355 0.49741,-0.0829 0.17764,-0.11843 0.28423,-0.30792 0.28423,-0.50925 0,-0.18949 -0.0947,-0.36713 -0.24871,-0.48556 -0.11843,-0.0829 -0.21317,-0.10659 -0.53293,-0.10659 h -1.19613 z"
           style="font-style:normal;font-variant:normal;font-weight:bold;font-stretch:normal;font-size:11.84292793px;font-family:'Nimbus Mono L';-inkscape-font-specification:'Nimbus Mono L Bold';text-align:end;text-anchor:end;fill:#37abc8;fill-opacity:1;stroke-width:0.18504575"
           id="path974" />
        <path
           d="m 109.02288,-265.80596 -2.5107,0.65136 c -0.47372,0.11843 -0.62768,0.26054 -0.62768,0.60399 0,0.34344 0.23686,0.61583 0.54477,0.61583 0.11843,0 0.15396,-0.0118 0.37898,-0.0711 l 1.03033,-0.27238 v 4.84375 h -1.19613 c -0.30792,0 -0.39082,0.0118 -0.49741,0.0829 -0.17764,0.10659 -0.28423,0.30792 -0.28423,0.50925 0,0.17764 0.0948,0.36713 0.24871,0.47372 0.0947,0.0829 0.26054,0.11843 0.53293,0.11843 h 3.57656 c 0.23686,0 0.4145,-0.0355 0.4974,-0.0829 0.17765,-0.11843 0.28424,-0.30792 0.28424,-0.50925 0,-0.18949 -0.0947,-0.36713 -0.24871,-0.48556 -0.11843,-0.0829 -0.21317,-0.10659 -0.53293,-0.10659 h -1.19613 z"
           style="font-style:normal;font-variant:normal;font-weight:bold;font-stretch:normal;font-size:11.84292793px;font-family:'Nimbus Mono L';-inkscape-font-specification:'Nimbus Mono L Bold';text-align:end;text-anchor:end;fill:#37abc8;fill-opacity:1;stroke-width:0.18504575"
           id="path976" />
        <path
           d="m 118.10178,-262.50178 c 0,-1.07771 -0.33161,-2.03699 -0.92375,-2.65282 -0.40266,-0.42635 -0.97112,-0.65136 -1.64617,-0.65136 -0.67505,0 -1.24351,0.22501 -1.64617,0.65136 -0.59214,0.61583 -0.92374,1.57511 -0.92374,2.65282 v 1.12507 c 0,1.07771 0.3316,2.03699 0.92374,2.65282 0.40266,0.42635 0.97112,0.65136 1.64617,0.65136 0.67505,0 1.24351,-0.22501 1.64617,-0.65136 0.59214,-0.61583 0.92375,-1.57511 0.92375,-2.65282 z m -3.95554,-0.0829 c 0,-1.23167 0.54477,-2.03699 1.38562,-2.03699 0.84085,0 1.38562,0.80532 1.38562,2.03699 v 1.29087 c 0,1.23167 -0.54477,2.03699 -1.38562,2.03699 -0.84085,0 -1.38562,-0.80532 -1.38562,-2.03699 z"
           style="font-style:normal;font-variant:normal;font-weight:bold;font-stretch:normal;font-size:11.84292793px;font-family:'Nimbus Mono L';-inkscape-font-specification:'Nimbus Mono L Bold';text-align:end;text-anchor:end;fill:#37abc8;fill-opacity:1;stroke-width:0.18504575"
           id="path978" />
        <path
           d="m 125.20291,-262.50178 c 0,-1.07771 -0.3316,-2.03699 -0.92375,-2.65282 -0.40266,-0.42635 -0.97112,-0.65136 -1.64617,-0.65136 -0.67504,0 -1.2435,0.22501 -1.64616,0.65136 -0.59215,0.61583 -0.92375,1.57511 -0.92375,2.65282 v 1.12507 c 0,1.07771 0.3316,2.03699 0.92375,2.65282 0.40266,0.42635 0.97112,0.65136 1.64616,0.65136 0.67505,0 1.24351,-0.22501 1.64617,-0.65136 0.59215,-0.61583 0.92375,-1.57511 0.92375,-2.65282 z m -3.95554,-0.0829 c 0,-1.23167 0.54477,-2.03699 1.38562,-2.03699 0.84085,0 1.38563,0.80532 1.38563,2.03699 v 1.29087 c 0,1.23167 -0.54478,2.03699 -1.38563,2.03699 -0.84085,0 -1.38562,-0.80532 -1.38562,-2.03699 z"
           style="font-style:normal;font-variant:normal;font-weight:bold;font-stretch:normal;font-size:11.84292793px;font-family:'Nimbus Mono L';-inkscape-font-specification:'Nimbus Mono L Bold';text-align:end;text-anchor:end;fill:#37abc8;fill-opacity:1;stroke-width:0.18504575"
           id="path980" />
        <path
           d="m 132.30404,-262.50178 c 0,-1.07771 -0.33161,-2.03699 -0.92375,-2.65282 -0.40266,-0.42635 -0.97112,-0.65136 -1.64617,-0.65136 -0.67505,0 -1.24351,0.22501 -1.64617,0.65136 -0.59214,0.61583 -0.92375,1.57511 -0.92375,2.65282 v 1.12507 c 0,1.07771 0.33161,2.03699 0.92375,2.65282 0.40266,0.42635 0.97112,0.65136 1.64617,0.65136 0.67505,0 1.24351,-0.22501 1.64617,-0.65136 0.59214,-0.61583 0.92375,-1.57511 0.92375,-2.65282 z m -3.95554,-0.0829 c 0,-1.23167 0.54477,-2.03699 1.38562,-2.03699 0.84085,0 1.38562,0.80532 1.38562,2.03699 v 1.29087 c 0,1.23167 -0.54477,2.03699 -1.38562,2.03699 -0.84085,0 -1.38562,-0.80532 -1.38562,-2.03699 z"
           style="font-style:normal;font-variant:normal;font-weight:bold;font-stretch:normal;font-size:11.84292793px;font-family:'Nimbus Mono L';-inkscape-font-specification:'Nimbus Mono L Bold';text-align:end;text-anchor:end;fill:#37abc8;fill-opacity:1;stroke-width:0.18504575"
           id="path982" />
        <path
           d="m 139.40517,-262.50178 c 0,-1.07771 -0.3316,-2.03699 -0.92375,-2.65282 -0.40266,-0.42635 -0.97112,-0.65136 -1.64617,-0.65136 -0.67505,0 -1.24351,0.22501 -1.64617,0.65136 -0.59214,0.61583 -0.92374,1.57511 -0.92374,2.65282 v 1.12507 c 0,1.07771 0.3316,2.03699 0.92374,2.65282 0.40266,0.42635 0.97112,0.65136 1.64617,0.65136 0.67505,0 1.24351,-0.22501 1.64617,-0.65136 0.59215,-0.61583 0.92375,-1.57511 0.92375,-2.65282 z m -3.95554,-0.0829 c 0,-1.23167 0.54477,-2.03699 1.38562,-2.03699 0.84085,0 1.38562,0.80532 1.38562,2.03699 v 1.29087 c 0,1.23167 -0.54477,2.03699 -1.38562,2.03699 -0.84085,0 -1.38562,-0.80532 -1.38562,-2.03699 z"
           style="font-style:normal;font-variant:normal;font-weight:bold;font-stretch:normal;font-size:11.84292793px;font-family:'Nimbus Mono L';-inkscape-font-specification:'Nimbus Mono L Bold';text-align:end;text-anchor:end;fill:#37abc8;fill-opacity:1;stroke-width:0.18504575"
           id="path984" />
        <path
           d="m 182.01195,-262.50178 c 0,-1.07771 -0.3316,-2.03699 -0.92375,-2.65282 -0.40266,-0.42635 -0.97112,-0.65136 -1.64616,-0.65136 -0.67505,0 -1.24351,0.22501 -1.64617,0.65136 -0.59215,0.61583 -0.92375,1.57511 -0.92375,2.65282 v 1.12507 c 0,1.07771 0.3316,2.03699 0.92375,2.65282 0.40266,0.42635 0.97112,0.65136 1.64617,0.65136 0.67504,0 1.2435,-0.22501 1.64616,-0.65136 0.59215,-0.61583 0.92375,-1.57511 0.92375,-2.65282 z m -3.95554,-0.0829 c 0,-1.23167 0.54478,-2.03699 1.38563,-2.03699 0.84084,0 1.38562,0.80532 1.38562,2.03699 v 1.29087 c 0,1.23167 -0.54478,2.03699 -1.38562,2.03699 -0.84085,0 -1.38563,-0.80532 -1.38563,-2.03699 z"
           style="font-style:normal;font-variant:normal;font-weight:bold;font-stretch:normal;font-size:11.84292793px;font-family:'Nimbus Mono L';-inkscape-font-specification:'Nimbus Mono L Bold';text-align:end;text-anchor:end;fill:#37abc8;fill-opacity:1;stroke-width:0.18504575"
           id="path986" />
        <path
           d="m 187.13531,-265.80596 -2.5107,0.65136 c -0.47372,0.11843 -0.62768,0.26054 -0.62768,0.60399 0,0.34344 0.23686,0.61583 0.54478,0.61583 0.11843,0 0.15396,-0.0118 0.37897,-0.0711 l 1.03034,-0.27238 v 4.84375 h -1.19614 c -0.30791,0 -0.39081,0.0118 -0.4974,0.0829 -0.17764,0.10659 -0.28423,0.30792 -0.28423,0.50925 0,0.17764 0.0947,0.36713 0.2487,0.47372 0.0947,0.0829 0.26054,0.11843 0.53293,0.11843 h 3.57657 c 0.23685,0 0.4145,-0.0355 0.4974,-0.0829 0.17764,-0.11843 0.28423,-0.30792 0.28423,-0.50925 0,-0.18949 -0.0947,-0.36713 -0.2487,-0.48556 -0.11843,-0.0829 -0.21317,-0.10659 -0.53293,-0.10659 h -1.19614 z"
           style="font-style:normal;font-variant:normal;font-weight:bold;font-stretch:normal;font-size:11.84292793px;font-family:'Nimbus Mono L';-inkscape-font-specification:'Nimbus Mono L Bold';text-align:end;text-anchor:end;fill:#37abc8;fill-opacity:1;stroke-width:0.18504575"
           id="path988" />
        <path
           d="m 194.23645,-265.80596 -2.5107,0.65136 c -0.47372,0.11843 -0.62768,0.26054 -0.62768,0.60399 0,0.34344 0.23686,0.61583 0.54477,0.61583 0.11843,0 0.15396,-0.0118 0.37898,-0.0711 l 1.03033,-0.27238 v 4.84375 h -1.19613 c -0.30792,0 -0.39082,0.0118 -0.49741,0.0829 -0.17764,0.10659 -0.28423,0.30792 -0.28423,0.50925 0,0.17764 0.0948,0.36713 0.24871,0.47372 0.0947,0.0829 0.26054,0.11843 0.53293,0.11843 h 3.57656 c 0.23686,0 0.4145,-0.0355 0.4974,-0.0829 0.17765,-0.11843 0.28423,-0.30792 0.28423,-0.50925 0,-0.18949 -0.0947,-0.36713 -0.2487,-0.48556 -0.11843,-0.0829 -0.21317,-0.10659 -0.53293,-0.10659 h -1.19613 z"
           style="font-style:normal;font-variant:normal;font-weight:bold;font-stretch:normal;font-size:11.84292793px;font-family:'Nimbus Mono L';-inkscape-font-specification:'Nimbus Mono L Bold';text-align:end;text-anchor:end;fill:#37abc8;fill-opacity:1;stroke-width:0.18504575"
           id="path990" />
        <path
           d="m 73.517224,-251.0023 -2.5107,0.65136 c -0.473717,0.11843 -0.627676,0.26054 -0.627676,0.60399 0,0.34344 0.236859,0.61583 0.544775,0.61583 0.118429,0 0.153958,-0.0118 0.378974,-0.0711 l 1.030335,-0.27238 v 4.84375 h -1.196136 c -0.307916,0 -0.390817,0.0119 -0.497403,0.0829 -0.177644,0.10659 -0.28423,0.30792 -0.28423,0.50925 0,0.17764 0.09474,0.36713 0.248701,0.47372 0.09474,0.0829 0.260544,0.11843 0.532932,0.11843 h 3.576564 c 0.236859,0 0.414503,-0.0355 0.497403,-0.0829 0.177644,-0.11843 0.28423,-0.30792 0.28423,-0.50925 0,-0.18949 -0.09474,-0.36713 -0.248701,-0.48556 -0.118429,-0.0829 -0.213173,-0.10659 -0.532932,-0.10659 h -1.196136 z"
           style="font-style:normal;font-variant:normal;font-weight:bold;font-stretch:normal;font-size:11.84292793px;font-family:'Nimbus Mono L';-inkscape-font-specification:'Nimbus Mono L Bold';text-align:end;text-anchor:end;fill:#37abc8;fill-opacity:1;stroke-width:0.18504575"
           id="path992" />
        <path
           d="m 82.596124,-247.69812 c 0,-1.07771 -0.331602,-2.03699 -0.923749,-2.65282 -0.402659,-0.42635 -0.97112,-0.65136 -1.646167,-0.65136 -0.675046,0 -1.243507,0.22501 -1.646167,0.65136 -0.592146,0.61583 -0.923748,1.57511 -0.923748,2.65282 v 1.12507 c 0,1.07771 0.331602,2.03699 0.923748,2.65282 0.40266,0.42635 0.971121,0.65136 1.646167,0.65136 0.675047,0 1.243508,-0.22501 1.646167,-0.65136 0.592147,-0.61583 0.923749,-1.57511 0.923749,-2.65282 z m -3.955538,-0.0829 c 0,-1.23167 0.544775,-2.03699 1.385622,-2.03699 0.840848,0 1.385623,0.80532 1.385623,2.03699 v 1.29087 c 0,1.23167 -0.544775,2.03699 -1.385623,2.03699 -0.840847,0 -1.385622,-0.80532 -1.385622,-2.03699 z"
           style="font-style:normal;font-variant:normal;font-weight:bold;font-stretch:normal;font-size:11.84292793px;font-family:'Nimbus Mono L';-inkscape-font-specification:'Nimbus Mono L Bold';text-align:end;text-anchor:end;fill:#37abc8;fill-opacity:1;stroke-width:0.18504575"
           id="path994" />
        <path
           d="m 89.697254,-247.69812 c 0,-1.07771 -0.331602,-2.03699 -0.923748,-2.65282 -0.40266,-0.42635 -0.97112,-0.65136 -1.646167,-0.65136 -0.675047,0 -1.243508,0.22501 -1.646167,0.65136 -0.592146,0.61583 -0.923748,1.57511 -0.923748,2.65282 v 1.12507 c 0,1.07771 0.331602,2.03699 0.923748,2.65282 0.402659,0.42635 0.97112,0.65136 1.646167,0.65136 0.675047,0 1.243507,-0.22501 1.646167,-0.65136 0.592146,-0.61583 0.923748,-1.57511 0.923748,-2.65282 z m -3.955538,-0.0829 c 0,-1.23167 0.544775,-2.03699 1.385623,-2.03699 0.840848,0 1.385622,0.80532 1.385622,2.03699 v 1.29087 c 0,1.23167 -0.544774,2.03699 -1.385622,2.03699 -0.840848,0 -1.385623,-0.80532 -1.385623,-2.03699 z"
           style="font-style:normal;font-variant:normal;font-weight:bold;font-stretch:normal;font-size:11.84292793px;font-family:'Nimbus Mono L';-inkscape-font-specification:'Nimbus Mono L Bold';text-align:end;text-anchor:end;fill:#37abc8;fill-opacity:1;stroke-width:0.18504575"
           id="path996" />
        <path
           d="m 94.820615,-251.0023 -2.510701,0.65136 c -0.473717,0.11843 -0.627675,0.26054 -0.627675,0.60399 0,0.34344 0.236859,0.61583 0.544775,0.61583 0.118429,0 0.153958,-0.0118 0.378973,-0.0711 l 1.030335,-0.27238 v 4.84375 h -1.196136 c -0.307916,0 -0.390816,0.0119 -0.497403,0.0829 -0.177644,0.10659 -0.28423,0.30792 -0.28423,0.50925 0,0.17764 0.09474,0.36713 0.248702,0.47372 0.09474,0.0829 0.260544,0.11843 0.532931,0.11843 h 3.576565 c 0.236858,0 0.414502,-0.0355 0.497403,-0.0829 0.177643,-0.11843 0.28423,-0.30792 0.28423,-0.50925 0,-0.18949 -0.09474,-0.36713 -0.248702,-0.48556 -0.118429,-0.0829 -0.213172,-0.10659 -0.532931,-0.10659 h -1.196136 z"
           style="font-style:normal;font-variant:normal;font-weight:bold;font-stretch:normal;font-size:11.84292793px;font-family:'Nimbus Mono L';-inkscape-font-specification:'Nimbus Mono L Bold';text-align:end;text-anchor:end;fill:#37abc8;fill-opacity:1;stroke-width:0.18504575"
           id="path998" />
        <path
           d="m 103.89952,-247.69812 c 0,-1.07771 -0.33161,-2.03699 -0.92375,-2.65282 -0.40266,-0.42635 -0.97112,-0.65136 -1.64617,-0.65136 -0.67505,0 -1.24351,0.22501 -1.646167,0.65136 -0.592146,0.61583 -0.923748,1.57511 -0.923748,2.65282 v 1.12507 c 0,1.07771 0.331602,2.03699 0.923748,2.65282 0.402657,0.42635 0.971117,0.65136 1.646167,0.65136 0.67505,0 1.24351,-0.22501 1.64617,-0.65136 0.59214,-0.61583 0.92375,-1.57511 0.92375,-2.65282 z m -3.955543,-0.0829 c 0,-1.23167 0.544773,-2.03699 1.385623,-2.03699 0.84085,0 1.38562,0.80532 1.38562,2.03699 v 1.29087 c 0,1.23167 -0.54477,2.03699 -1.38562,2.03699 -0.84085,0 -1.385623,-0.80532 -1.385623,-2.03699 z"
           style="font-style:normal;font-variant:normal;font-weight:bold;font-stretch:normal;font-size:11.84292793px;font-family:'Nimbus Mono L';-inkscape-font-specification:'Nimbus Mono L Bold';text-align:end;text-anchor:end;fill:#37abc8;fill-opacity:1;stroke-width:0.18504575"
           id="path1000" />
        <path
           d="m 111.00065,-247.69812 c 0,-1.07771 -0.33161,-2.03699 -0.92375,-2.65282 -0.40266,-0.42635 -0.97112,-0.65136 -1.64617,-0.65136 -0.67505,0 -1.24351,0.22501 -1.64617,0.65136 -0.59214,0.61583 -0.92374,1.57511 -0.92374,2.65282 v 1.12507 c 0,1.07771 0.3316,2.03699 0.92374,2.65282 0.40266,0.42635 0.97112,0.65136 1.64617,0.65136 0.67505,0 1.24351,-0.22501 1.64617,-0.65136 0.59214,-0.61583 0.92375,-1.57511 0.92375,-2.65282 z m -3.95554,-0.0829 c 0,-1.23167 0.54477,-2.03699 1.38562,-2.03699 0.84085,0 1.38562,0.80532 1.38562,2.03699 v 1.29087 c 0,1.23167 -0.54477,2.03699 -1.38562,2.03699 -0.84085,0 -1.38562,-0.80532 -1.38562,-2.03699 z"
           style="font-style:normal;font-variant:normal;font-weight:bold;font-stretch:normal;font-size:11.84292793px;font-family:'Nimbus Mono L';-inkscape-font-specification:'Nimbus Mono L Bold';text-align:end;text-anchor:end;fill:#37abc8;fill-opacity:1;stroke-width:0.18504575"
           id="path1002" />
        <path
           d="m 116.12401,-251.0023 -2.51071,0.65136 c -0.47371,0.11843 -0.62767,0.26054 -0.62767,0.60399 0,0.34344 0.23686,0.61583 0.54477,0.61583 0.11843,0 0.15396,-0.0118 0.37898,-0.0711 l 1.03033,-0.27238 v 4.84375 h -1.19613 c -0.30792,0 -0.39082,0.0119 -0.49741,0.0829 -0.17764,0.10659 -0.28423,0.30792 -0.28423,0.50925 0,0.17764 0.0948,0.36713 0.24871,0.47372 0.0947,0.0829 0.26054,0.11843 0.53293,0.11843 h 3.57656 c 0.23686,0 0.4145,-0.0355 0.4974,-0.0829 0.17765,-0.11843 0.28423,-0.30792 0.28423,-0.50925 0,-0.18949 -0.0947,-0.36713 -0.2487,-0.48556 -0.11843,-0.0829 -0.21317,-0.10659 -0.53293,-0.10659 h -1.19613 z"
           style="font-style:normal;font-variant:normal;font-weight:bold;font-stretch:normal;font-size:11.84292793px;font-family:'Nimbus Mono L';-inkscape-font-specification:'Nimbus Mono L Bold';text-align:end;text-anchor:end;fill:#37abc8;fill-opacity:1;stroke-width:0.18504575"
           id="path1004" />
        <path
           d="m 123.22514,-251.0023 -2.5107,0.65136 c -0.47372,0.11843 -0.62768,0.26054 -0.62768,0.60399 0,0.34344 0.23686,0.61583 0.54478,0.61583 0.11842,0 0.15395,-0.0118 0.37897,-0.0711 l 1.03033,-0.27238 v 4.84375 h -1.19613 c -0.30792,0 -0.39082,0.0119 -0.4974,0.0829 -0.17765,0.10659 -0.28423,0.30792 -0.28423,0.50925 0,0.17764 0.0947,0.36713 0.2487,0.47372 0.0947,0.0829 0.26054,0.11843 0.53293,0.11843 h 3.57656 c 0.23686,0 0.4145,-0.0355 0.49741,-0.0829 0.17764,-0.11843 0.28423,-0.30792 0.28423,-0.50925 0,-0.18949 -0.0948,-0.36713 -0.24871,-0.48556 -0.11843,-0.0829 -0.21317,-0.10659 -0.53293,-0.10659 h -1.19613 z"
           style="font-style:normal;font-variant:normal;font-weight:bold;font-stretch:normal;font-size:11.84292793px;font-family:'Nimbus Mono L';-inkscape-font-specification:'Nimbus Mono L Bold';text-align:end;text-anchor:end;fill:#37abc8;fill-opacity:1;stroke-width:0.18504575"
           id="path1006" />
        <path
           d="m 132.30404,-247.69812 c 0,-1.07771 -0.3316,-2.03699 -0.92375,-2.65282 -0.40266,-0.42635 -0.97112,-0.65136 -1.64617,-0.65136 -0.67505,0 -1.24351,0.22501 -1.64617,0.65136 -0.59214,0.61583 -0.92374,1.57511 -0.92374,2.65282 v 1.12507 c 0,1.07771 0.3316,2.03699 0.92374,2.65282 0.40266,0.42635 0.97112,0.65136 1.64617,0.65136 0.67505,0 1.24351,-0.22501 1.64617,-0.65136 0.59215,-0.61583 0.92375,-1.57511 0.92375,-2.65282 z m -3.95554,-0.0829 c 0,-1.23167 0.54477,-2.03699 1.38562,-2.03699 0.84085,0 1.38562,0.80532 1.38562,2.03699 v 1.29087 c 0,1.23167 -0.54477,2.03699 -1.38562,2.03699 -0.84085,0 -1.38562,-0.80532 -1.38562,-2.03699 z"
           style="font-style:normal;font-variant:normal;font-weight:bold;font-stretch:normal;font-size:11.84292793px;font-family:'Nimbus Mono L';-inkscape-font-specification:'Nimbus Mono L Bold';text-align:end;text-anchor:end;fill:#37abc8;fill-opacity:1;stroke-width:0.18504575"
           id="path1008" />
        <path
           d="m 137.4274,-251.0023 -2.5107,0.65136 c -0.47372,0.11843 -0.62768,0.26054 -0.62768,0.60399 0,0.34344 0.23686,0.61583 0.54478,0.61583 0.11843,0 0.15396,-0.0118 0.37897,-0.0711 l 1.03034,-0.27238 v 4.84375 h -1.19614 c -0.30791,0 -0.39082,0.0119 -0.4974,0.0829 -0.17765,0.10659 -0.28423,0.30792 -0.28423,0.50925 0,0.17764 0.0947,0.36713 0.2487,0.47372 0.0947,0.0829 0.26054,0.11843 0.53293,0.11843 h 3.57657 c 0.23685,0 0.4145,-0.0355 0.4974,-0.0829 0.17764,-0.11843 0.28423,-0.30792 0.28423,-0.50925 0,-0.18949 -0.0947,-0.36713 -0.2487,-0.48556 -0.11843,-0.0829 -0.21318,-0.10659 -0.53293,-0.10659 h -1.19614 z"
           style="font-style:normal;font-variant:normal;font-weight:bold;font-stretch:normal;font-size:11.84292793px;font-family:'Nimbus Mono L';-inkscape-font-specification:'Nimbus Mono L Bold';text-align:end;text-anchor:end;fill:#37abc8;fill-opacity:1;stroke-width:0.18504575"
           id="path1010" />
        <path
           d="m 180.03418,-251.0023 -2.5107,0.65136 c -0.47371,0.11843 -0.62767,0.26054 -0.62767,0.60399 0,0.34344 0.23686,0.61583 0.54477,0.61583 0.11843,0 0.15396,-0.0118 0.37898,-0.0711 l 1.03033,-0.27238 v 4.84375 h -1.19613 c -0.30792,0 -0.39082,0.0119 -0.49741,0.0829 -0.17764,0.10659 -0.28423,0.30792 -0.28423,0.50925 0,0.17764 0.0948,0.36713 0.2487,0.47372 0.0948,0.0829 0.26055,0.11843 0.53294,0.11843 h 3.57656 c 0.23686,0 0.4145,-0.0355 0.4974,-0.0829 0.17765,-0.11843 0.28423,-0.30792 0.28423,-0.50925 0,-0.18949 -0.0947,-0.36713 -0.2487,-0.48556 -0.11843,-0.0829 -0.21317,-0.10659 -0.53293,-0.10659 h -1.19614 z"
           style="font-style:normal;font-variant:normal;font-weight:bold;font-stretch:normal;font-size:11.84292793px;font-family:'Nimbus Mono L';-inkscape-font-specification:'Nimbus Mono L Bold';text-align:end;text-anchor:end;fill:#37abc8;fill-opacity:1;stroke-width:0.18504575"
           id="path1012" />
        <path
           d="m 187.13531,-251.0023 -2.5107,0.65136 c -0.47372,0.11843 -0.62767,0.26054 -0.62767,0.60399 0,0.34344 0.23685,0.61583 0.54477,0.61583 0.11843,0 0.15396,-0.0118 0.37897,-0.0711 l 1.03034,-0.27238 v 4.84375 h -1.19614 c -0.30791,0 -0.39081,0.0119 -0.4974,0.0829 -0.17764,0.10659 -0.28423,0.30792 -0.28423,0.50925 0,0.17764 0.0947,0.36713 0.2487,0.47372 0.0948,0.0829 0.26055,0.11843 0.53293,0.11843 h 3.57657 c 0.23686,0 0.4145,-0.0355 0.4974,-0.0829 0.17764,-0.11843 0.28423,-0.30792 0.28423,-0.50925 0,-0.18949 -0.0947,-0.36713 -0.2487,-0.48556 -0.11843,-0.0829 -0.21317,-0.10659 -0.53293,-0.10659 h -1.19614 z"
           style="font-style:normal;font-variant:normal;font-weight:bold;font-stretch:normal;font-size:11.84292793px;font-family:'Nimbus Mono L';-inkscape-font-specification:'Nimbus Mono L Bold';text-align:end;text-anchor:end;fill:#37abc8;fill-opacity:1;stroke-width:0.18504575"
           id="path1014" />
        <path
           d="m 194.23644,-251.0023 -2.5107,0.65136 c -0.47372,0.11843 -0.62768,0.26054 -0.62768,0.60399 0,0.34344 0.23686,0.61583 0.54478,0.61583 0.11843,0 0.15396,-0.0118 0.37897,-0.0711 l 1.03034,-0.27238 v 4.84375 h -1.19614 c -0.30791,0 -0.39082,0.0119 -0.4974,0.0829 -0.17765,0.10659 -0.28423,0.30792 -0.28423,0.50925 0,0.17764 0.0947,0.36713 0.2487,0.47372 0.0947,0.0829 0.26054,0.11843 0.53293,0.11843 h 3.57657 c 0.23685,0 0.4145,-0.0355 0.4974,-0.0829 0.17764,-0.11843 0.28423,-0.30792 0.28423,-0.50925 0,-0.18949 -0.0947,-0.36713 -0.2487,-0.48556 -0.11843,-0.0829 -0.21318,-0.10659 -0.53293,-0.10659 h -1.19614 z"
           style="font-style:normal;font-variant:normal;font-weight:bold;font-stretch:normal;font-size:11.84292793px;font-family:'Nimbus Mono L';-inkscape-font-specification:'Nimbus Mono L Bold';text-align:end;text-anchor:end;fill:#37abc8;fill-opacity:1;stroke-width:0.18504575"
           id="path1016" />
        <path
           d="m 75.494993,-232.89446 c 0,-1.07771 -0.331602,-2.03699 -0.923748,-2.65282 -0.40266,-0.42635 -0.97112,-0.65136 -1.646167,-0.65136 -0.675047,0 -1.243507,0.22501 -1.646167,0.65136 -0.592146,0.61583 -0.923748,1.57511 -0.923748,2.65282 v 1.12507 c 0,1.07771 0.331602,2.03699 0.923748,2.65282 0.40266,0.42635 0.97112,0.65136 1.646167,0.65136 0.675047,0 1.243507,-0.22501 1.646167,-0.65136 0.592146,-0.61583 0.923748,-1.57511 0.923748,-2.65282 z m -3.955538,-0.0829 c 0,-1.23167 0.544775,-2.03699 1.385623,-2.03699 0.840848,0 1.385623,0.80532 1.385623,2.03699 v 1.29087 c 0,1.23167 -0.544775,2.03699 -1.385623,2.03699 -0.840848,0 -1.385623,-0.80532 -1.385623,-2.03699 z"
           style="font-style:normal;font-variant:normal;font-weight:bold;font-stretch:normal;font-size:11.84292793px;font-family:'Nimbus Mono L';-inkscape-font-specification:'Nimbus Mono L Bold';text-align:end;text-anchor:end;fill:#37abc8;fill-opacity:1;stroke-width:0.18504575"
           id="path1018" />
        <path
           d="m 80.618355,-236.19864 -2.510701,0.65136 c -0.473717,0.11843 -0.627675,0.26054 -0.627675,0.60399 0,0.34344 0.236858,0.61583 0.544775,0.61583 0.118429,0 0.153958,-0.0118 0.378973,-0.0711 l 1.030335,-0.27238 v 4.84375 h -1.196136 c -0.307916,0 -0.390816,0.0118 -0.497403,0.0829 -0.177644,0.10659 -0.28423,0.30792 -0.28423,0.50925 0,0.17764 0.09474,0.36713 0.248702,0.47372 0.09474,0.0829 0.260544,0.11843 0.532931,0.11843 h 3.576565 c 0.236858,0 0.414502,-0.0355 0.497403,-0.0829 0.177643,-0.11843 0.28423,-0.30792 0.28423,-0.50925 0,-0.18949 -0.09474,-0.36713 -0.248702,-0.48556 -0.118429,-0.0829 -0.213172,-0.10659 -0.532931,-0.10659 h -1.196136 z"
           style="font-style:normal;font-variant:normal;font-weight:bold;font-stretch:normal;font-size:11.84292793px;font-family:'Nimbus Mono L';-inkscape-font-specification:'Nimbus Mono L Bold';text-align:end;text-anchor:end;fill:#37abc8;fill-opacity:1;stroke-width:0.18504575"
           id="path1020" />
        <path
           d="m 87.719485,-236.19864 -2.5107,0.65136 c -0.473718,0.11843 -0.627676,0.26054 -0.627676,0.60399 0,0.34344 0.236859,0.61583 0.544775,0.61583 0.118429,0 0.153958,-0.0118 0.378974,-0.0711 l 1.030335,-0.27238 v 4.84375 h -1.196136 c -0.307916,0 -0.390817,0.0118 -0.497403,0.0829 -0.177644,0.10659 -0.28423,0.30792 -0.28423,0.50925 0,0.17764 0.09474,0.36713 0.248701,0.47372 0.09474,0.0829 0.260544,0.11843 0.532932,0.11843 h 3.576564 c 0.236859,0 0.414503,-0.0355 0.497403,-0.0829 0.177644,-0.11843 0.28423,-0.30792 0.28423,-0.50925 0,-0.18949 -0.09474,-0.36713 -0.248701,-0.48556 -0.118429,-0.0829 -0.213173,-0.10659 -0.532932,-0.10659 h -1.196136 z"
           style="font-style:normal;font-variant:normal;font-weight:bold;font-stretch:normal;font-size:11.84292793px;font-family:'Nimbus Mono L';-inkscape-font-specification:'Nimbus Mono L Bold';text-align:end;text-anchor:end;fill:#37abc8;fill-opacity:1;stroke-width:0.18504575"
           id="path1022" />
        <path
           d="m 96.798384,-232.89446 c 0,-1.07771 -0.331602,-2.03699 -0.923749,-2.65282 -0.402659,-0.42635 -0.97112,-0.65136 -1.646167,-0.65136 -0.675046,0 -1.243507,0.22501 -1.646167,0.65136 -0.592146,0.61583 -0.923748,1.57511 -0.923748,2.65282 v 1.12507 c 0,1.07771 0.331602,2.03699 0.923748,2.65282 0.40266,0.42635 0.971121,0.65136 1.646167,0.65136 0.675047,0 1.243508,-0.22501 1.646167,-0.65136 0.592147,-0.61583 0.923749,-1.57511 0.923749,-2.65282 z m -3.955538,-0.0829 c 0,-1.23167 0.544775,-2.03699 1.385622,-2.03699 0.840848,0 1.385623,0.80532 1.385623,2.03699 v 1.29087 c 0,1.23167 -0.544775,2.03699 -1.385623,2.03699 -0.840847,0 -1.385622,-0.80532 -1.385622,-2.03699 z"
           style="font-style:normal;font-variant:normal;font-weight:bold;font-stretch:normal;font-size:11.84292793px;font-family:'Nimbus Mono L';-inkscape-font-specification:'Nimbus Mono L Bold';text-align:end;text-anchor:end;fill:#37abc8;fill-opacity:1;stroke-width:0.18504575"
           id="path1024" />
        <path
           d="m 101.92175,-236.19864 -2.510704,0.65136 c -0.473718,0.11843 -0.627676,0.26054 -0.627676,0.60399 0,0.34344 0.236859,0.61583 0.544775,0.61583 0.118429,0 0.153958,-0.0118 0.378974,-0.0711 l 1.030331,-0.27238 v 4.84375 h -1.196132 c -0.307916,0 -0.390817,0.0118 -0.497403,0.0829 -0.177644,0.10659 -0.28423,0.30792 -0.28423,0.50925 0,0.17764 0.09474,0.36713 0.248701,0.47372 0.09474,0.0829 0.260544,0.11843 0.532932,0.11843 h 3.576562 c 0.23686,0 0.4145,-0.0355 0.4974,-0.0829 0.17765,-0.11843 0.28424,-0.30792 0.28424,-0.50925 0,-0.18949 -0.0947,-0.36713 -0.24871,-0.48556 -0.11843,-0.0829 -0.21317,-0.10659 -0.53293,-0.10659 h -1.19613 z"
           style="font-style:normal;font-variant:normal;font-weight:bold;font-stretch:normal;font-size:11.84292793px;font-family:'Nimbus Mono L';-inkscape-font-specification:'Nimbus Mono L Bold';text-align:end;text-anchor:end;fill:#37abc8;fill-opacity:1;stroke-width:0.18504575"
           id="path1026" />
        <path
           d="m 111.00065,-232.89446 c 0,-1.07771 -0.33161,-2.03699 -0.92375,-2.65282 -0.40266,-0.42635 -0.97112,-0.65136 -1.64617,-0.65136 -0.67505,0 -1.24351,0.22501 -1.64617,0.65136 -0.59214,0.61583 -0.92374,1.57511 -0.92374,2.65282 v 1.12507 c 0,1.07771 0.3316,2.03699 0.92374,2.65282 0.40266,0.42635 0.97112,0.65136 1.64617,0.65136 0.67505,0 1.24351,-0.22501 1.64617,-0.65136 0.59214,-0.61583 0.92375,-1.57511 0.92375,-2.65282 z m -3.95554,-0.0829 c 0,-1.23167 0.54477,-2.03699 1.38562,-2.03699 0.84085,0 1.38562,0.80532 1.38562,2.03699 v 1.29087 c 0,1.23167 -0.54477,2.03699 -1.38562,2.03699 -0.84085,0 -1.38562,-0.80532 -1.38562,-2.03699 z"
           style="font-style:normal;font-variant:normal;font-weight:bold;font-stretch:normal;font-size:11.84292793px;font-family:'Nimbus Mono L';-inkscape-font-specification:'Nimbus Mono L Bold';text-align:end;text-anchor:end;fill:#37abc8;fill-opacity:1;stroke-width:0.18504575"
           id="path1028" />
        <path
           d="m 116.12401,-236.19864 -2.51071,0.65136 c -0.47371,0.11843 -0.62767,0.26054 -0.62767,0.60399 0,0.34344 0.23686,0.61583 0.54477,0.61583 0.11843,0 0.15396,-0.0118 0.37898,-0.0711 l 1.03033,-0.27238 v 4.84375 h -1.19613 c -0.30792,0 -0.39082,0.0118 -0.49741,0.0829 -0.17764,0.10659 -0.28423,0.30792 -0.28423,0.50925 0,0.17764 0.0948,0.36713 0.24871,0.47372 0.0947,0.0829 0.26054,0.11843 0.53293,0.11843 h 3.57656 c 0.23686,0 0.4145,-0.0355 0.4974,-0.0829 0.17765,-0.11843 0.28423,-0.30792 0.28423,-0.50925 0,-0.18949 -0.0947,-0.36713 -0.2487,-0.48556 -0.11843,-0.0829 -0.21317,-0.10659 -0.53293,-0.10659 h -1.19613 z"
           style="font-style:normal;font-variant:normal;font-weight:bold;font-stretch:normal;font-size:11.84292793px;font-family:'Nimbus Mono L';-inkscape-font-specification:'Nimbus Mono L Bold';text-align:end;text-anchor:end;fill:#37abc8;fill-opacity:1;stroke-width:0.18504575"
           id="path1030" />
        <path
           d="m 125.20291,-232.89446 c 0,-1.07771 -0.33161,-2.03699 -0.92375,-2.65282 -0.40266,-0.42635 -0.97112,-0.65136 -1.64617,-0.65136 -0.67505,0 -1.24351,0.22501 -1.64617,0.65136 -0.59214,0.61583 -0.92374,1.57511 -0.92374,2.65282 v 1.12507 c 0,1.07771 0.3316,2.03699 0.92374,2.65282 0.40266,0.42635 0.97112,0.65136 1.64617,0.65136 0.67505,0 1.24351,-0.22501 1.64617,-0.65136 0.59214,-0.61583 0.92375,-1.57511 0.92375,-2.65282 z m -3.95554,-0.0829 c 0,-1.23167 0.54477,-2.03699 1.38562,-2.03699 0.84085,0 1.38562,0.80532 1.38562,2.03699 v 1.29087 c 0,1.23167 -0.54477,2.03699 -1.38562,2.03699 -0.84085,0 -1.38562,-0.80532 -1.38562,-2.03699 z"
           style="font-style:normal;font-variant:normal;font-weight:bold;font-stretch:normal;font-size:11.84292793px;font-family:'Nimbus Mono L';-inkscape-font-specification:'Nimbus Mono L Bold';text-align:end;text-anchor:end;fill:#37abc8;fill-opacity:1;stroke-width:0.18504575"
           id="path1032" />
        <path
           d="m 132.30404,-232.89446 c 0,-1.07771 -0.3316,-2.03699 -0.92375,-2.65282 -0.40266,-0.42635 -0.97112,-0.65136 -1.64617,-0.65136 -0.67505,0 -1.24351,0.22501 -1.64617,0.65136 -0.59214,0.61583 -0.92374,1.57511 -0.92374,2.65282 v 1.12507 c 0,1.07771 0.3316,2.03699 0.92374,2.65282 0.40266,0.42635 0.97112,0.65136 1.64617,0.65136 0.67505,0 1.24351,-0.22501 1.64617,-0.65136 0.59215,-0.61583 0.92375,-1.57511 0.92375,-2.65282 z m -3.95554,-0.0829 c 0,-1.23167 0.54477,-2.03699 1.38562,-2.03699 0.84085,0 1.38562,0.80532 1.38562,2.03699 v 1.29087 c 0,1.23167 -0.54477,2.03699 -1.38562,2.03699 -0.84085,0 -1.38562,-0.80532 -1.38562,-2.03699 z"
           style="font-style:normal;font-variant:normal;font-weight:bold;font-stretch:normal;font-size:11.84292793px;font-family:'Nimbus Mono L';-inkscape-font-specification:'Nimbus Mono L Bold';text-align:end;text-anchor:end;fill:#37abc8;fill-opacity:1;stroke-width:0.18504575"
           id="path1034" />
        <path
           d="m 137.4274,-236.19864 -2.5107,0.65136 c -0.47372,0.11843 -0.62768,0.26054 -0.62768,0.60399 0,0.34344 0.23686,0.61583 0.54478,0.61583 0.11843,0 0.15396,-0.0118 0.37897,-0.0711 l 1.03034,-0.27238 v 4.84375 h -1.19614 c -0.30791,0 -0.39082,0.0118 -0.4974,0.0829 -0.17765,0.10659 -0.28423,0.30792 -0.28423,0.50925 0,0.17764 0.0947,0.36713 0.2487,0.47372 0.0947,0.0829 0.26054,0.11843 0.53293,0.11843 h 3.57657 c 0.23685,0 0.4145,-0.0355 0.4974,-0.0829 0.17764,-0.11843 0.28423,-0.30792 0.28423,-0.50925 0,-0.18949 -0.0947,-0.36713 -0.2487,-0.48556 -0.11843,-0.0829 -0.21318,-0.10659 -0.53293,-0.10659 h -1.19614 z"
           style="font-style:normal;font-variant:normal;font-weight:bold;font-stretch:normal;font-size:11.84292793px;font-family:'Nimbus Mono L';-inkscape-font-specification:'Nimbus Mono L Bold';text-align:end;text-anchor:end;fill:#37abc8;fill-opacity:1;stroke-width:0.18504575"
           id="path1036" />
        <path
           d="m 180.03418,-236.19864 -2.5107,0.65136 c -0.47371,0.11843 -0.62767,0.26054 -0.62767,0.60399 0,0.34344 0.23686,0.61583 0.54477,0.61583 0.11843,0 0.15396,-0.0118 0.37898,-0.0711 l 1.03033,-0.27238 v 4.84375 h -1.19613 c -0.30792,0 -0.39082,0.0118 -0.49741,0.0829 -0.17764,0.10659 -0.28423,0.30792 -0.28423,0.50925 0,0.17764 0.0948,0.36713 0.2487,0.47372 0.0948,0.0829 0.26055,0.11843 0.53294,0.11843 h 3.57656 c 0.23686,0 0.4145,-0.0355 0.4974,-0.0829 0.17765,-0.11843 0.28423,-0.30792 0.28423,-0.50925 0,-0.18949 -0.0947,-0.36713 -0.2487,-0.48556 -0.11843,-0.0829 -0.21317,-0.10659 -0.53293,-0.10659 h -1.19614 z"
           style="font-style:normal;font-variant:normal;font-weight:bold;font-stretch:normal;font-size:11.84292793px;font-family:'Nimbus Mono L';-inkscape-font-specification:'Nimbus Mono L Bold';text-align:end;text-anchor:end;fill:#37abc8;fill-opacity:1;stroke-width:0.18504575"
           id="path1038" />
        <path
           d="m 189.11308,-232.89446 c 0,-1.07771 -0.3316,-2.03699 -0.92375,-2.65282 -0.40266,-0.42635 -0.97112,-0.65136 -1.64616,-0.65136 -0.67505,0 -1.24351,0.22501 -1.64617,0.65136 -0.59215,0.61583 -0.92375,1.57511 -0.92375,2.65282 v 1.12507 c 0,1.07771 0.3316,2.03699 0.92375,2.65282 0.40266,0.42635 0.97112,0.65136 1.64617,0.65136 0.67504,0 1.2435,-0.22501 1.64616,-0.65136 0.59215,-0.61583 0.92375,-1.57511 0.92375,-2.65282 z m -3.95554,-0.0829 c 0,-1.23167 0.54478,-2.03699 1.38563,-2.03699 0.84084,0 1.38562,0.80532 1.38562,2.03699 v 1.29087 c 0,1.23167 -0.54478,2.03699 -1.38562,2.03699 -0.84085,0 -1.38563,-0.80532 -1.38563,-2.03699 z"
           style="font-style:normal;font-variant:normal;font-weight:bold;font-stretch:normal;font-size:11.84292793px;font-family:'Nimbus Mono L';-inkscape-font-specification:'Nimbus Mono L Bold';text-align:end;text-anchor:end;fill:#37abc8;fill-opacity:1;stroke-width:0.18504575"
           id="path1040" />
        <path
           d="m 196.21421,-232.89446 c 0,-1.07771 -0.3316,-2.03699 -0.92375,-2.65282 -0.40266,-0.42635 -0.97112,-0.65136 -1.64617,-0.65136 -0.67504,0 -1.2435,0.22501 -1.64616,0.65136 -0.59215,0.61583 -0.92375,1.57511 -0.92375,2.65282 v 1.12507 c 0,1.07771 0.3316,2.03699 0.92375,2.65282 0.40266,0.42635 0.97112,0.65136 1.64616,0.65136 0.67505,0 1.24351,-0.22501 1.64617,-0.65136 0.59215,-0.61583 0.92375,-1.57511 0.92375,-2.65282 z m -3.95554,-0.0829 c 0,-1.23167 0.54478,-2.03699 1.38562,-2.03699 0.84085,0 1.38563,0.80532 1.38563,2.03699 v 1.29087 c 0,1.23167 -0.54478,2.03699 -1.38563,2.03699 -0.84084,0 -1.38562,-0.80532 -1.38562,-2.03699 z"
           style="font-style:normal;font-variant:normal;font-weight:bold;font-stretch:normal;font-size:11.84292793px;font-family:'Nimbus Mono L';-inkscape-font-specification:'Nimbus Mono L Bold';text-align:end;text-anchor:end;fill:#37abc8;fill-opacity:1;stroke-width:0.18504575"
           id="path1042" />
        <path
           d="m 87.719486,-221.39498 -2.510701,0.65136 c -0.473717,0.11843 -0.627675,0.26054 -0.627675,0.60399 0,0.34344 0.236858,0.61583 0.544774,0.61583 0.11843,0 0.153958,-0.0118 0.378974,-0.0711 l 1.030335,-0.27238 v 4.84375 h -1.196136 c -0.307916,0 -0.390817,0.0119 -0.497403,0.0829 -0.177644,0.10659 -0.28423,0.30792 -0.28423,0.50925 0,0.17764 0.09474,0.36713 0.248701,0.47372 0.09474,0.0829 0.260545,0.11843 0.532932,0.11843 h 3.576564 c 0.236859,0 0.414503,-0.0355 0.497403,-0.0829 0.177644,-0.11843 0.284231,-0.30792 0.284231,-0.50925 0,-0.18949 -0.09474,-0.36713 -0.248702,-0.48556 -0.118429,-0.0829 -0.213173,-0.10659 -0.532932,-0.10659 h -1.196135 z"
           style="font-style:normal;font-variant:normal;font-weight:bold;font-stretch:normal;font-size:11.84292793px;font-family:'Nimbus Mono L';-inkscape-font-specification:'Nimbus Mono L Bold';text-align:end;text-anchor:end;fill:#37abc8;fill-opacity:1;stroke-width:0.18504575"
           id="path1044" />
        <path
           d="m 96.798385,-218.0908 c 0,-1.07771 -0.331602,-2.03699 -0.923748,-2.65282 -0.40266,-0.42635 -0.97112,-0.65136 -1.646167,-0.65136 -0.675047,0 -1.243508,0.22501 -1.646167,0.65136 -0.592147,0.61583 -0.923749,1.57511 -0.923749,2.65282 v 1.12507 c 0,1.07771 0.331602,2.03699 0.923749,2.65282 0.402659,0.42634 0.97112,0.65136 1.646167,0.65136 0.675047,0 1.243507,-0.22502 1.646167,-0.65136 0.592146,-0.61583 0.923748,-1.57511 0.923748,-2.65282 z m -3.955538,-0.0829 c 0,-1.23167 0.544775,-2.03699 1.385623,-2.03699 0.840848,0 1.385622,0.80532 1.385622,2.03699 v 1.29087 c 0,1.23167 -0.544774,2.03699 -1.385622,2.03699 -0.840848,0 -1.385623,-0.80532 -1.385623,-2.03699 z"
           style="font-style:normal;font-variant:normal;font-weight:bold;font-stretch:normal;font-size:11.84292793px;font-family:'Nimbus Mono L';-inkscape-font-specification:'Nimbus Mono L Bold';text-align:end;text-anchor:end;fill:#37abc8;fill-opacity:1;stroke-width:0.18504575"
           id="path1046" />
        <path
           d="m 101.92175,-221.39498 -2.510704,0.65136 c -0.473717,0.11843 -0.627675,0.26054 -0.627675,0.60399 0,0.34344 0.236858,0.61583 0.544774,0.61583 0.11843,0 0.153958,-0.0118 0.378974,-0.0711 l 1.030331,-0.27238 v 4.84375 h -1.196132 c -0.307916,0 -0.390817,0.0119 -0.497403,0.0829 -0.177644,0.10659 -0.28423,0.30792 -0.28423,0.50925 0,0.17764 0.09474,0.36713 0.248701,0.47372 0.09474,0.0829 0.260545,0.11843 0.532932,0.11843 h 3.576562 c 0.23686,0 0.4145,-0.0355 0.49741,-0.0829 0.17764,-0.11843 0.28423,-0.30792 0.28423,-0.50925 0,-0.18949 -0.0947,-0.36713 -0.24871,-0.48556 -0.11843,-0.0829 -0.21317,-0.10659 -0.53293,-0.10659 h -1.19613 z"
           style="font-style:normal;font-variant:normal;font-weight:bold;font-stretch:normal;font-size:11.84292793px;font-family:'Nimbus Mono L';-inkscape-font-specification:'Nimbus Mono L Bold';text-align:end;text-anchor:end;fill:#37abc8;fill-opacity:1;stroke-width:0.18504575"
           id="path1048" />
        <path
           d="m 111.00065,-218.0908 c 0,-1.07771 -0.33161,-2.03699 -0.92375,-2.65282 -0.40266,-0.42635 -0.97112,-0.65136 -1.64617,-0.65136 -0.67505,0 -1.24351,0.22501 -1.64617,0.65136 -0.59214,0.61583 -0.92375,1.57511 -0.92375,2.65282 v 1.12507 c 0,1.07771 0.33161,2.03699 0.92375,2.65282 0.40266,0.42634 0.97112,0.65136 1.64617,0.65136 0.67505,0 1.24351,-0.22502 1.64617,-0.65136 0.59214,-0.61583 0.92375,-1.57511 0.92375,-2.65282 z m -3.95554,-0.0829 c 0,-1.23167 0.54477,-2.03699 1.38562,-2.03699 0.84085,0 1.38562,0.80532 1.38562,2.03699 v 1.29087 c 0,1.23167 -0.54477,2.03699 -1.38562,2.03699 -0.84085,0 -1.38562,-0.80532 -1.38562,-2.03699 z"
           style="font-style:normal;font-variant:normal;font-weight:bold;font-stretch:normal;font-size:11.84292793px;font-family:'Nimbus Mono L';-inkscape-font-specification:'Nimbus Mono L Bold';text-align:end;text-anchor:end;fill:#37abc8;fill-opacity:1;stroke-width:0.18504575"
           id="path1050" />
        <path
           d="m 116.12401,-221.39498 -2.5107,0.65136 c -0.47372,0.11843 -0.62768,0.26054 -0.62768,0.60399 0,0.34344 0.23686,0.61583 0.54478,0.61583 0.11843,0 0.15395,-0.0118 0.37897,-0.0711 l 1.03033,-0.27238 v 4.84375 h -1.19613 c -0.30792,0 -0.39082,0.0119 -0.4974,0.0829 -0.17765,0.10659 -0.28423,0.30792 -0.28423,0.50925 0,0.17764 0.0947,0.36713 0.2487,0.47372 0.0947,0.0829 0.26054,0.11843 0.53293,0.11843 h 3.57656 c 0.23686,0 0.41451,-0.0355 0.49741,-0.0829 0.17764,-0.11843 0.28423,-0.30792 0.28423,-0.50925 0,-0.18949 -0.0948,-0.36713 -0.2487,-0.48556 -0.11843,-0.0829 -0.21318,-0.10659 -0.53294,-0.10659 h -1.19613 z"
           style="font-style:normal;font-variant:normal;font-weight:bold;font-stretch:normal;font-size:11.84292793px;font-family:'Nimbus Mono L';-inkscape-font-specification:'Nimbus Mono L Bold';text-align:end;text-anchor:end;fill:#37abc8;fill-opacity:1;stroke-width:0.18504575"
           id="path1052" />
        <path
           d="m 123.22514,-221.39498 -2.5107,0.65136 c -0.47372,0.11843 -0.62768,0.26054 -0.62768,0.60399 0,0.34344 0.23686,0.61583 0.54478,0.61583 0.11843,0 0.15396,-0.0118 0.37897,-0.0711 l 1.03034,-0.27238 v 4.84375 h -1.19614 c -0.30792,0 -0.39082,0.0119 -0.4974,0.0829 -0.17765,0.10659 -0.28423,0.30792 -0.28423,0.50925 0,0.17764 0.0947,0.36713 0.2487,0.47372 0.0947,0.0829 0.26054,0.11843 0.53293,0.11843 h 3.57656 c 0.23686,0 0.41451,-0.0355 0.49741,-0.0829 0.17764,-0.11843 0.28423,-0.30792 0.28423,-0.50925 0,-0.18949 -0.0948,-0.36713 -0.2487,-0.48556 -0.11843,-0.0829 -0.21318,-0.10659 -0.53294,-0.10659 h -1.19613 z"
           style="font-style:normal;font-variant:normal;font-weight:bold;font-stretch:normal;font-size:11.84292793px;font-family:'Nimbus Mono L';-inkscape-font-specification:'Nimbus Mono L Bold';text-align:end;text-anchor:end;fill:#37abc8;fill-opacity:1;stroke-width:0.18504575"
           id="path1054" />
        <path
           d="m 132.30404,-218.0908 c 0,-1.07771 -0.33161,-2.03699 -0.92375,-2.65282 -0.40266,-0.42635 -0.97112,-0.65136 -1.64617,-0.65136 -0.67505,0 -1.24351,0.22501 -1.64617,0.65136 -0.59214,0.61583 -0.92375,1.57511 -0.92375,2.65282 v 1.12507 c 0,1.07771 0.33161,2.03699 0.92375,2.65282 0.40266,0.42634 0.97112,0.65136 1.64617,0.65136 0.67505,0 1.24351,-0.22502 1.64617,-0.65136 0.59214,-0.61583 0.92375,-1.57511 0.92375,-2.65282 z m -3.95554,-0.0829 c 0,-1.23167 0.54477,-2.03699 1.38562,-2.03699 0.84085,0 1.38562,0.80532 1.38562,2.03699 v 1.29087 c 0,1.23167 -0.54477,2.03699 -1.38562,2.03699 -0.84085,0 -1.38562,-0.80532 -1.38562,-2.03699 z"
           style="font-style:normal;font-variant:normal;font-weight:bold;font-stretch:normal;font-size:11.84292793px;font-family:'Nimbus Mono L';-inkscape-font-specification:'Nimbus Mono L Bold';text-align:end;text-anchor:end;fill:#37abc8;fill-opacity:1;stroke-width:0.18504575"
           id="path1056" />
        <path
           d="m 139.40517,-218.0908 c 0,-1.07771 -0.3316,-2.03699 -0.92375,-2.65282 -0.40266,-0.42635 -0.97112,-0.65136 -1.64617,-0.65136 -0.67505,0 -1.24351,0.22501 -1.64617,0.65136 -0.59214,0.61583 -0.92374,1.57511 -0.92374,2.65282 v 1.12507 c 0,1.07771 0.3316,2.03699 0.92374,2.65282 0.40266,0.42634 0.97112,0.65136 1.64617,0.65136 0.67505,0 1.24351,-0.22502 1.64617,-0.65136 0.59215,-0.61583 0.92375,-1.57511 0.92375,-2.65282 z m -3.95554,-0.0829 c 0,-1.23167 0.54477,-2.03699 1.38562,-2.03699 0.84085,0 1.38562,0.80532 1.38562,2.03699 v 1.29087 c 0,1.23167 -0.54477,2.03699 -1.38562,2.03699 -0.84085,0 -1.38562,-0.80532 -1.38562,-2.03699 z"
           style="font-style:normal;font-variant:normal;font-weight:bold;font-stretch:normal;font-size:11.84292793px;font-family:'Nimbus Mono L';-inkscape-font-specification:'Nimbus Mono L Bold';text-align:end;text-anchor:end;fill:#37abc8;fill-opacity:1;stroke-width:0.18504575"
           id="path1058" />
        <path
           d="m 182.01195,-218.0908 c 0,-1.07771 -0.3316,-2.03699 -0.92375,-2.65282 -0.40266,-0.42635 -0.97112,-0.65136 -1.64616,-0.65136 -0.67505,0 -1.24351,0.22501 -1.64617,0.65136 -0.59215,0.61583 -0.92375,1.57511 -0.92375,2.65282 v 1.12507 c 0,1.07771 0.3316,2.03699 0.92375,2.65282 0.40266,0.42634 0.97112,0.65136 1.64617,0.65136 0.67504,0 1.2435,-0.22502 1.64616,-0.65136 0.59215,-0.61583 0.92375,-1.57511 0.92375,-2.65282 z m -3.95554,-0.0829 c 0,-1.23167 0.54478,-2.03699 1.38563,-2.03699 0.84084,0 1.38562,0.80532 1.38562,2.03699 v 1.29087 c 0,1.23167 -0.54478,2.03699 -1.38562,2.03699 -0.84085,0 -1.38563,-0.80532 -1.38563,-2.03699 z"
           style="font-style:normal;font-variant:normal;font-weight:bold;font-stretch:normal;font-size:11.84292793px;font-family:'Nimbus Mono L';-inkscape-font-specification:'Nimbus Mono L Bold';text-align:end;text-anchor:end;fill:#37abc8;fill-opacity:1;stroke-width:0.18504575"
           id="path1060" />
        <path
           d="m 187.13531,-221.39498 -2.5107,0.65136 c -0.47372,0.11843 -0.62768,0.26054 -0.62768,0.60399 0,0.34344 0.23686,0.61583 0.54478,0.61583 0.11843,0 0.15396,-0.0118 0.37897,-0.0711 l 1.03034,-0.27238 v 4.84375 h -1.19614 c -0.30791,0 -0.39081,0.0119 -0.4974,0.0829 -0.17764,0.10659 -0.28423,0.30792 -0.28423,0.50925 0,0.17764 0.0947,0.36713 0.2487,0.47372 0.0947,0.0829 0.26054,0.11843 0.53293,0.11843 h 3.57657 c 0.23685,0 0.4145,-0.0355 0.4974,-0.0829 0.17764,-0.11843 0.28423,-0.30792 0.28423,-0.50925 0,-0.18949 -0.0947,-0.36713 -0.2487,-0.48556 -0.11843,-0.0829 -0.21317,-0.10659 -0.53293,-0.10659 h -1.19614 z"
           style="font-style:normal;font-variant:normal;font-weight:bold;font-stretch:normal;font-size:11.84292793px;font-family:'Nimbus Mono L';-inkscape-font-specification:'Nimbus Mono L Bold';text-align:end;text-anchor:end;fill:#37abc8;fill-opacity:1;stroke-width:0.18504575"
           id="path1062" />
        <path
           d="m 194.23645,-221.39498 -2.5107,0.65136 c -0.47372,0.11843 -0.62768,0.26054 -0.62768,0.60399 0,0.34344 0.23686,0.61583 0.54477,0.61583 0.11843,0 0.15396,-0.0118 0.37898,-0.0711 l 1.03033,-0.27238 v 4.84375 h -1.19613 c -0.30792,0 -0.39082,0.0119 -0.49741,0.0829 -0.17764,0.10659 -0.28423,0.30792 -0.28423,0.50925 0,0.17764 0.0948,0.36713 0.24871,0.47372 0.0947,0.0829 0.26054,0.11843 0.53293,0.11843 h 3.57656 c 0.23686,0 0.4145,-0.0355 0.4974,-0.0829 0.17765,-0.11843 0.28423,-0.30792 0.28423,-0.50925 0,-0.18949 -0.0947,-0.36713 -0.2487,-0.48556 -0.11843,-0.0829 -0.21317,-0.10659 -0.53293,-0.10659 h -1.19613 z"
           style="font-style:normal;font-variant:normal;font-weight:bold;font-stretch:normal;font-size:11.84292793px;font-family:'Nimbus Mono L';-inkscape-font-specification:'Nimbus Mono L Bold';text-align:end;text-anchor:end;fill:#37abc8;fill-opacity:1;stroke-width:0.18504575"
           id="path1064" />
        <path
           d="m 111.00065,-203.28714 c 0,-1.07771 -0.33161,-2.03699 -0.92375,-2.65282 -0.40266,-0.42635 -0.97112,-0.65136 -1.64617,-0.65136 -0.67505,0 -1.24351,0.22501 -1.64617,0.65136 -0.59214,0.61583 -0.92374,1.57511 -0.92374,2.65282 v 1.12507 c 0,1.07771 0.3316,2.03699 0.92374,2.65282 0.40266,0.42634 0.97112,0.65136 1.64617,0.65136 0.67505,0 1.24351,-0.22502 1.64617,-0.65136 0.59214,-0.61583 0.92375,-1.57511 0.92375,-2.65282 z m -3.95554,-0.0829 c 0,-1.23166 0.54477,-2.03698 1.38562,-2.03698 0.84085,0 1.38562,0.80532 1.38562,2.03698 v 1.29088 c 0,1.23167 -0.54477,2.03699 -1.38562,2.03699 -0.84085,0 -1.38562,-0.80532 -1.38562,-2.03699 z"
           style="font-style:normal;font-variant:normal;font-weight:bold;font-stretch:normal;font-size:11.84292793px;font-family:'Nimbus Mono L';-inkscape-font-specification:'Nimbus Mono L Bold';text-align:end;text-anchor:end;fill:#37abc8;fill-opacity:1;stroke-width:0.18504575"
           id="path1066" />
        <path
           d="m 116.12401,-206.59132 -2.5107,0.65136 c -0.47372,0.11843 -0.62768,0.26054 -0.62768,0.60399 0,0.34344 0.23686,0.61583 0.54478,0.61583 0.11843,0 0.15395,-0.0118 0.37897,-0.0711 l 1.03034,-0.27238 v 4.84375 h -1.19614 c -0.30792,0 -0.39082,0.0119 -0.4974,0.0829 -0.17765,0.10659 -0.28423,0.30792 -0.28423,0.50925 0,0.17764 0.0947,0.36713 0.2487,0.47372 0.0947,0.0829 0.26054,0.11843 0.53293,0.11843 h 3.57656 c 0.23686,0 0.41451,-0.0355 0.49741,-0.0829 0.17764,-0.11843 0.28423,-0.30792 0.28423,-0.50925 0,-0.18949 -0.0948,-0.36713 -0.2487,-0.48556 -0.11843,-0.0829 -0.21318,-0.10659 -0.53294,-0.10659 h -1.19613 z"
           style="font-style:normal;font-variant:normal;font-weight:bold;font-stretch:normal;font-size:11.84292793px;font-family:'Nimbus Mono L';-inkscape-font-specification:'Nimbus Mono L Bold';text-align:end;text-anchor:end;fill:#37abc8;fill-opacity:1;stroke-width:0.18504575"
           id="path1068" />
        <path
           d="m 123.22514,-206.59132 -2.5107,0.65136 c -0.47372,0.11843 -0.62768,0.26054 -0.62768,0.60399 0,0.34344 0.23686,0.61583 0.54478,0.61583 0.11843,0 0.15396,-0.0118 0.37897,-0.0711 l 1.03034,-0.27238 v 4.84375 h -1.19614 c -0.30792,0 -0.39082,0.0119 -0.4974,0.0829 -0.17765,0.10659 -0.28423,0.30792 -0.28423,0.50925 0,0.17764 0.0947,0.36713 0.2487,0.47372 0.0947,0.0829 0.26054,0.11843 0.53293,0.11843 h 3.57656 c 0.23686,0 0.41451,-0.0355 0.49741,-0.0829 0.17764,-0.11843 0.28423,-0.30792 0.28423,-0.50925 0,-0.18949 -0.0948,-0.36713 -0.2487,-0.48556 -0.11843,-0.0829 -0.21318,-0.10659 -0.53294,-0.10659 h -1.19613 z"
           style="font-style:normal;font-variant:normal;font-weight:bold;font-stretch:normal;font-size:11.84292793px;font-family:'Nimbus Mono L';-inkscape-font-specification:'Nimbus Mono L Bold';text-align:end;text-anchor:end;fill:#37abc8;fill-opacity:1;stroke-width:0.18504575"
           id="path1070" />
        <path
           d="m 130.32627,-206.59132 -2.5107,0.65136 c -0.47372,0.11843 -0.62768,0.26054 -0.62768,0.60399 0,0.34344 0.23686,0.61583 0.54478,0.61583 0.11843,0 0.15395,-0.0118 0.37897,-0.0711 l 1.03034,-0.27238 v 4.84375 h -1.19614 c -0.30792,0 -0.39082,0.0119 -0.4974,0.0829 -0.17765,0.10659 -0.28423,0.30792 -0.28423,0.50925 0,0.17764 0.0947,0.36713 0.2487,0.47372 0.0947,0.0829 0.26054,0.11843 0.53293,0.11843 h 3.57656 c 0.23686,0 0.41451,-0.0355 0.49741,-0.0829 0.17764,-0.11843 0.28423,-0.30792 0.28423,-0.50925 0,-0.18949 -0.0947,-0.36713 -0.2487,-0.48556 -0.11843,-0.0829 -0.21318,-0.10659 -0.53294,-0.10659 h -1.19613 z"
           style="font-style:normal;font-variant:normal;font-weight:bold;font-stretch:normal;font-size:11.84292793px;font-family:'Nimbus Mono L';-inkscape-font-specification:'Nimbus Mono L Bold';text-align:end;text-anchor:end;fill:#37abc8;fill-opacity:1;stroke-width:0.18504575"
           id="path1072" />
        <path
           d="m 139.40517,-203.28714 c 0,-1.07771 -0.3316,-2.03699 -0.92375,-2.65282 -0.40266,-0.42635 -0.97112,-0.65136 -1.64617,-0.65136 -0.67504,0 -1.2435,0.22501 -1.64616,0.65136 -0.59215,0.61583 -0.92375,1.57511 -0.92375,2.65282 v 1.12507 c 0,1.07771 0.3316,2.03699 0.92375,2.65282 0.40266,0.42634 0.97112,0.65136 1.64616,0.65136 0.67505,0 1.24351,-0.22502 1.64617,-0.65136 0.59215,-0.61583 0.92375,-1.57511 0.92375,-2.65282 z m -3.95554,-0.0829 c 0,-1.23166 0.54478,-2.03698 1.38562,-2.03698 0.84085,0 1.38563,0.80532 1.38563,2.03698 v 1.29088 c 0,1.23167 -0.54478,2.03699 -1.38563,2.03699 -0.84084,0 -1.38562,-0.80532 -1.38562,-2.03699 z"
           style="font-style:normal;font-variant:normal;font-weight:bold;font-stretch:normal;font-size:11.84292793px;font-family:'Nimbus Mono L';-inkscape-font-specification:'Nimbus Mono L Bold';text-align:end;text-anchor:end;fill:#37abc8;fill-opacity:1;stroke-width:0.18504575"
           id="path1074" />
        <path
           d="m 180.03418,-206.59132 -2.5107,0.65136 c -0.47371,0.11843 -0.62767,0.26054 -0.62767,0.60399 0,0.34344 0.23686,0.61583 0.54477,0.61583 0.11843,0 0.15396,-0.0118 0.37898,-0.0711 l 1.03033,-0.27238 v 4.84375 h -1.19613 c -0.30792,0 -0.39082,0.0119 -0.49741,0.0829 -0.17764,0.10659 -0.28423,0.30792 -0.28423,0.50925 0,0.17764 0.0948,0.36713 0.2487,0.47372 0.0948,0.0829 0.26055,0.11843 0.53294,0.11843 h 3.57656 c 0.23686,0 0.4145,-0.0355 0.4974,-0.0829 0.17765,-0.11843 0.28423,-0.30792 0.28423,-0.50925 0,-0.18949 -0.0947,-0.36713 -0.2487,-0.48556 -0.11843,-0.0829 -0.21317,-0.10659 -0.53293,-0.10659 h -1.19614 z"
           style="font-style:normal;font-variant:normal;font-weight:bold;font-stretch:normal;font-size:11.84292793px;font-family:'Nimbus Mono L';-inkscape-font-specification:'Nimbus Mono L Bold';text-align:end;text-anchor:end;fill:#37abc8;fill-opacity:1;stroke-width:0.18504575"
           id="path1076" />
        <path
           d="m 189.11308,-203.28714 c 0,-1.07771 -0.3316,-2.03699 -0.92375,-2.65282 -0.40266,-0.42635 -0.97112,-0.65136 -1.64616,-0.65136 -0.67505,0 -1.24351,0.22501 -1.64617,0.65136 -0.59215,0.61583 -0.92375,1.57511 -0.92375,2.65282 v 1.12507 c 0,1.07771 0.3316,2.03699 0.92375,2.65282 0.40266,0.42634 0.97112,0.65136 1.64617,0.65136 0.67504,0 1.2435,-0.22502 1.64616,-0.65136 0.59215,-0.61583 0.92375,-1.57511 0.92375,-2.65282 z m -3.95554,-0.0829 c 0,-1.23166 0.54478,-2.03698 1.38563,-2.03698 0.84084,0 1.38562,0.80532 1.38562,2.03698 v 1.29088 c 0,1.23167 -0.54478,2.03699 -1.38562,2.03699 -0.84085,0 -1.38563,-0.80532 -1.38563,-2.03699 z"
           style="font-style:normal;font-variant:normal;font-weight:bold;font-stretch:normal;font-size:11.84292793px;font-family:'Nimbus Mono L';-inkscape-font-specification:'Nimbus Mono L Bold';text-align:end;text-anchor:end;fill:#37abc8;fill-opacity:1;stroke-width:0.18504575"
           id="path1078" />
        <path
           d="m 196.21421,-203.28714 c 0,-1.07771 -0.3316,-2.03699 -0.92375,-2.65282 -0.40266,-0.42635 -0.97112,-0.65136 -1.64617,-0.65136 -0.67504,0 -1.2435,0.22501 -1.64616,0.65136 -0.59215,0.61583 -0.92375,1.57511 -0.92375,2.65282 v 1.12507 c 0,1.07771 0.3316,2.03699 0.92375,2.65282 0.40266,0.42634 0.97112,0.65136 1.64616,0.65136 0.67505,0 1.24351,-0.22502 1.64617,-0.65136 0.59215,-0.61583 0.92375,-1.57511 0.92375,-2.65282 z m -3.95554,-0.0829 c 0,-1.23166 0.54478,-2.03698 1.38562,-2.03698 0.84085,0 1.38563,0.80532 1.38563,2.03698 v 1.29088 c 0,1.23167 -0.54478,2.03699 -1.38563,2.03699 -0.84084,0 -1.38562,-0.80532 -1.38562,-2.03699 z"
           style="font-style:normal;font-variant:normal;font-weight:bold;font-stretch:normal;font-size:11.84292793px;font-family:'Nimbus Mono L';-inkscape-font-specification:'Nimbus Mono L Bold';text-align:end;text-anchor:end;fill:#37abc8;fill-opacity:1;stroke-width:0.18504575"
           id="path1080" />
      </g>
      <path
         inkscape:connector-curvature="0"
         id="path2529"
         d="m 193.30509,169.62995 98.35492,-0.39474"
         style="fill:#000000;stroke:#ffffff;stroke-width:0.43955392;stroke-linecap:butt;stroke-linejoin:miter;stroke-miterlimit:4;stroke-dasharray:none;stroke-opacity:1" />
      <g
         aria-label="pproject"
         transform="matrix(2.1372314,0,0,2.4665201,-219.1867,-254.86311)"
         style="font-style:normal;font-variant:normal;font-weight:bold;font-stretch:normal;font-size:72.79107666px;line-height:1.25;font-family:monospace;-inkscape-font-specification:'monospace Bold';letter-spacing:0px;word-spacing:0px;fill:#ffffff;fill-opacity:1;stroke:none;stroke-width:0.67523086"
         id="text873">
        <path
           d="m 195.26586,168.92015 0.0104,2.59442 -1.29721,0.005 -0.0276,-6.86812 1.29722,-0.005 0.003,0.74634 q 0.20263,-0.43174 0.53494,-0.65076 0.33232,-0.21902 0.78101,-0.22082 0.85296,-0.003 1.32661,0.67883 0.47366,0.68226 0.47865,1.92616 0.005,1.26167 -0.47202,1.93886 -0.47264,0.67717 -1.3567,0.68072 -0.39982,0.002 -0.7205,-0.20147 -0.31626,-0.20753 -0.55783,-0.62416 z m 1.80536,-1.79761 q -0.003,-0.71969 -0.24443,-1.12744 -0.24153,-0.40774 -0.66357,-0.40605 -0.42204,0.002 -0.66474,0.41139 -0.2427,0.40969 -0.23981,1.12937 0.003,0.71969 0.24887,1.12742 0.24598,0.40773 0.66802,0.40604 0.42203,-0.002 0.66029,-0.41137 0.23826,-0.40967 0.23537,-1.12936 z"
           style="font-style:normal;font-variant:normal;font-weight:bold;font-stretch:normal;font-size:9.09833813px;font-family:monospace;-inkscape-font-specification:'monospace Bold';fill:#ffffff;stroke-width:0.67523086"
           id="path1083" />
        <path
           d="m 200.73903,168.89819 0.0104,2.59443 -1.29722,0.005 -0.0276,-6.86812 1.29721,-0.005 0.003,0.74634 q 0.20262,-0.43174 0.53494,-0.65076 0.33231,-0.21902 0.78101,-0.22082 0.85296,-0.003 1.32661,0.67883 0.47365,0.68226 0.47864,1.92616 0.005,1.26168 -0.47201,1.93886 -0.47264,0.67717 -1.3567,0.68072 -0.39983,0.002 -0.72051,-0.20147 -0.31626,-0.20753 -0.55783,-0.62416 z m 1.80536,-1.79761 q -0.003,-0.71969 -0.24442,-1.12743 -0.24154,-0.40775 -0.66358,-0.40606 -0.42204,0.002 -0.66473,0.41139 -0.2427,0.40969 -0.23981,1.12938 0.003,0.71968 0.24886,1.12741 0.24598,0.40773 0.66802,0.40604 0.42204,-0.002 0.6603,-0.41137 0.23825,-0.40967 0.23536,-1.12936 z"
           style="font-style:normal;font-variant:normal;font-weight:bold;font-stretch:normal;font-size:9.09833813px;font-family:monospace;-inkscape-font-specification:'monospace Bold';fill:#ffffff;stroke-width:0.67523086"
           id="path1085" />
        <path
           d="m 209.35031,165.96261 q -0.21403,-0.19461 -0.50318,-0.29119 -0.28472,-0.0966 -0.62679,-0.0952 -0.41315,0.002 -0.72354,0.14951 -0.30597,0.14339 -0.47368,0.41951 -0.10594,0.16924 -0.1494,0.40931 -0.039,0.24006 -0.0371,0.72873 l 0.009,2.29234 -1.30165,0.005 -0.02,-4.97562 1.30165,-0.005 0.003,0.77299 q 0.18932,-0.42724 0.58378,-0.65984 0.39444,-0.23704 0.92309,-0.23916 0.26656,-0.001 0.52005,0.0645 0.25791,0.0612 0.48942,0.18462 z"
           style="font-style:normal;font-variant:normal;font-weight:bold;font-stretch:normal;font-size:9.09833813px;font-family:monospace;-inkscape-font-specification:'monospace Bold';fill:#ffffff;stroke-width:0.67523086"
           id="path1087" />
        <path
           d="m 212.44499,165.51483 q -0.46646,0.002 -0.73136,0.4161 -0.26491,0.40978 -0.26197,1.14279 0.003,0.73302 0.27116,1.1451 0.26819,0.40764 0.73465,0.40577 0.47091,-0.002 0.73582,-0.41167 0.26489,-0.41423 0.26195,-1.14724 -0.003,-0.73301 -0.27114,-1.14066 -0.2682,-0.41208 -0.73911,-0.41019 z m -2.29498,1.56411 q -0.005,-1.20392 0.6143,-1.90833 0.62356,-0.70887 1.67644,-0.7131 1.05731,-0.004 1.6821,0.69962 0.62921,0.6994 0.63404,1.90333 0.005,1.20392 -0.61872,1.91279 -0.61914,0.70441 -1.67646,0.70866 -1.05287,0.004 -1.68208,-0.69518 -0.62479,-0.70386 -0.62962,-1.90779 z"
           style="font-style:normal;font-variant:normal;font-weight:bold;font-stretch:normal;font-size:9.09833813px;font-family:monospace;-inkscape-font-specification:'monospace Bold';fill:#ffffff;stroke-width:0.67523086"
           id="path1089" />
        <path
           d="m 218.97315,169.3359 q 0.005,1.11951 -0.39786,1.59648 -0.39791,0.4814 -1.33083,0.48515 l -1.40384,0.006 -0.004,-0.99957 1.03955,-0.004 q 0.43537,-0.002 0.61653,-0.24681 0.18116,-0.24507 0.17881,-0.83149 l -0.0152,-3.78502 -1.31943,0.005 -0.004,-0.99957 2.62108,-0.0105 z m -0.0228,-5.68642 -1.30165,0.005 -0.006,-1.51934 1.30165,-0.005 z"
           style="font-style:normal;font-variant:normal;font-weight:bold;font-stretch:normal;font-size:9.09833813px;font-family:monospace;-inkscape-font-specification:'monospace Bold';fill:#ffffff;stroke-width:0.67523086"
           id="path1091" />
        <path
           d="m 225.56563,169.25614 q -0.45239,0.1884 -0.92292,0.28359 -0.47053,0.0952 -0.99475,0.0973 -1.24835,0.005 -1.91296,-0.65871 -0.66018,-0.66818 -0.66522,-1.92541 -0.005,-1.21725 0.62755,-1.92616 0.63245,-0.7089 1.72975,-0.71331 1.10618,-0.004 1.71745,0.65061 0.61569,0.65059 0.62046,1.84118 l 0.002,0.52866 -3.37187,0.0135 q 0.007,0.5864 0.35003,0.87379 0.34323,0.28739 1.02293,0.28466 0.4487,-0.002 0.88355,-0.13238 0.43485,-0.13058 0.90907,-0.41237 z m -1.11298,-2.79436 q -0.011,-0.5153 -0.26967,-0.77637 -0.25429,-0.26554 -0.75185,-0.26354 -0.4487,0.002 -0.71414,0.27831 -0.26547,0.27206 -0.31232,0.77426 z"
           style="font-style:normal;font-variant:normal;font-weight:bold;font-stretch:normal;font-size:9.09833813px;font-family:monospace;-inkscape-font-specification:'monospace Bold';fill:#ffffff;stroke-width:0.67523086"
           id="path1093" />
        <path
           d="m 230.85662,169.22601 q -0.32798,0.19235 -0.70521,0.28716 -0.37723,0.0992 -0.81259,0.101 -1.15061,0.005 -1.802,-0.68581 -0.65139,-0.69043 -0.65631,-1.91657 -0.005,-1.23057 0.64533,-1.92622 0.65025,-0.7001 1.80086,-0.70472 0.39983,-0.002 0.76893,0.0902 0.37354,0.0918 0.74306,0.28579 l 0.005,1.19059 q -0.28531,-0.2432 -0.6279,-0.37066 -0.33816,-0.13192 -0.70245,-0.13046 -0.63528,0.003 -0.97573,0.4082 -0.34045,0.40564 -0.33745,1.15198 0.003,0.74634 0.34667,1.14479 0.34368,0.39846 0.97896,0.39591 0.37761,-0.002 0.70586,-0.12723 0.32823,-0.13015 0.6204,-0.38899 z"
           style="font-style:normal;font-variant:normal;font-weight:bold;font-stretch:normal;font-size:9.09833813px;font-family:monospace;-inkscape-font-specification:'monospace Bold';fill:#ffffff;stroke-width:0.67523086"
           id="path1095" />
        <path
           d="m 234.657,163.07555 0.006,1.41271 1.70149,-0.007 0.004,0.99956 -1.70148,0.007 0.009,2.35453 q 0.001,0.33319 0.16185,0.47915 0.16494,0.1415 0.54256,0.13999 l 0.99956,-0.004 0.004,0.99957 -1.09286,0.004 q -1.11952,0.004 -1.51633,-0.34933 -0.39682,-0.35825 -0.40071,-1.32672 l -0.009,-2.29234 -1.27056,0.005 -0.004,-0.99956 1.27056,-0.005 -0.006,-1.41272 z"
           style="font-style:normal;font-variant:normal;font-weight:bold;font-stretch:normal;font-size:9.09833813px;font-family:monospace;-inkscape-font-specification:'monospace Bold';fill:#ffffff;stroke-width:0.67523086"
           id="path1097" />
      </g>
      <path
         inkscape:connector-curvature="0"
         id="path2529-2"
         d="m 193.3055,141.85568 98.35492,-0.39474"
         style="fill:#000000;stroke:#ffffff;stroke-width:0.43955392;stroke-linecap:butt;stroke-linejoin:miter;stroke-miterlimit:4;stroke-dasharray:none;stroke-opacity:1" />
    </g>
  </g>
  <g
     inkscape:groupmode="layer"
     id="layer4"
     inkscape:label="Layer 4"
     transform="translate(-81.840262,-35.22265)" />
  <g
     inkscape:groupmode="layer"
     id="layer2"
     inkscape:label="Layer 2"
     transform="translate(-193.30421,16.992123)">
    <g
       id="g327"
       inkscape:label="WireframeSphere"
       transform="matrix(1.6863715,0.10604637,-0.09887378,1.5723109,186.67339,-1.7250014)"
       style="opacity:0.36000001;fill:none;stroke:#00c16e;stroke-opacity:1" />
  </g>
</svg>
